<svg viewBox="0 0 160 152" fill="none" xmlns="http://www.w3.org/2000/svg">
<path d="M160 151.515H82.879V74.3936H160V151.515ZM99.3941 134.999H143.485V90.9087H99.3941V134.999Z" fill="currentColor"/>
<path d="M121.44 77.121C100.152 77.121 82.879 59.8483 82.879 38.5605C82.879 17.2727 100.152 0 121.44 0C142.727 0 160 17.2727 160 38.5605C160 59.8483 142.652 77.121 121.44 77.121ZM121.44 16.5151C109.318 16.5151 99.3941 26.4393 99.3941 38.5605C99.3941 50.6817 109.243 60.6059 121.44 60.6059C133.636 60.6059 143.485 50.6817 143.485 38.5605C143.485 26.4393 133.561 16.5151 121.44 16.5151Z" fill="currentColor"/>
<path d="M92.4997 151.515H0L46.212 71.439L92.4997 151.515ZM28.6363 134.999H63.8634L46.212 104.469L28.6363 134.999Z" fill="currentColor"/>
</svg>
