<svg viewBox="0 0 18 18" fill="none" xmlns="http://www.w3.org/2000/svg">
<path d="M4.27482 13.7812H2.41014V6.48281L0.593262 7.18313V5.625L4.07795 4.21875H4.27482V13.7812Z" fill="currentColor"/>
<path d="M11.267 13.7815H5.64195V12.4625L8.22664 9.17749C8.50515 8.80148 8.74807 8.40038 8.95226 7.97936C9.09866 7.67051 9.1773 7.33392 9.18289 6.99217C9.20077 6.6466 9.12498 6.30261 8.96351 5.99655C8.90247 5.88177 8.81067 5.78624 8.69841 5.72068C8.58615 5.65511 8.45785 5.62208 8.32789 5.6253C8.18177 5.6245 8.03811 5.66297 7.91195 5.73669C7.78579 5.81041 7.68174 5.91667 7.6107 6.04436C7.41313 6.40546 7.32058 6.81464 7.34351 7.22561H5.48164C5.47584 6.67083 5.60111 6.12252 5.84726 5.6253C6.07419 5.1612 6.42823 4.77107 6.8682 4.5003C7.31864 4.2293 7.83602 4.08997 8.36164 4.09811C8.72273 4.07524 9.08471 4.12603 9.42557 4.24738C9.76643 4.36874 10.0791 4.55813 10.3444 4.80405C10.8151 5.2728 11.0504 5.9403 11.0504 6.80655C11.0428 7.37259 10.9093 7.92983 10.6595 8.4378C10.2761 9.17346 9.80383 9.85923 9.2532 10.4797L8.02133 12.2347H11.267V13.7815Z" fill="currentColor"/>
<path d="M13.5473 8.15634H14.4473C14.5911 8.16444 14.7345 8.13561 14.864 8.07259C14.9935 8.00958 15.1047 7.91448 15.187 7.79634C15.3595 7.50929 15.4427 7.1774 15.426 6.8429C15.4468 6.52837 15.3627 6.21584 15.187 5.95415C15.109 5.85854 15.0111 5.78119 14.9 5.72754C14.7889 5.6739 14.6674 5.64526 14.5441 5.64365C14.4207 5.64204 14.2985 5.6675 14.1861 5.71823C14.0736 5.76896 13.9737 5.84373 13.8932 5.93728C13.725 6.15489 13.6384 6.4246 13.6485 6.69946H11.812C11.8045 6.22965 11.9229 5.7664 12.1551 5.3579C12.3827 4.96374 12.7171 4.64198 13.1198 4.42978C13.5424 4.20338 14.0157 4.0882 14.4951 4.09509C14.8703 4.0733 15.2462 4.1265 15.6006 4.25157C15.955 4.37664 16.281 4.57108 16.5595 4.82353C16.8151 5.08626 17.0135 5.39907 17.1423 5.74225C17.271 6.08544 17.3273 6.45157 17.3076 6.81759C17.3096 7.24159 17.1927 7.65766 16.9701 8.01853C16.7557 8.37505 16.4485 8.66667 16.0814 8.86228C16.5036 9.03167 16.8577 9.33633 17.0882 9.72853C17.3166 10.1462 17.431 10.6167 17.4201 11.0926C17.4356 11.4726 17.3698 11.8515 17.2272 12.2041C17.0847 12.5567 16.8685 12.8748 16.5932 13.1373C16.0127 13.6642 15.2474 13.9402 14.4642 13.9051C14.0984 13.92 13.7334 13.8606 13.3911 13.7306C13.0489 13.6005 12.7366 13.4025 12.4729 13.1485C12.2165 12.8863 12.0166 12.5743 11.8855 12.2319C11.7545 11.8894 11.695 11.5237 11.7107 11.1573H13.5642C13.5574 11.4678 13.6566 11.7713 13.8454 12.0179C13.9219 12.1263 14.0229 12.2152 14.1402 12.2772C14.2575 12.3393 14.3878 12.3728 14.5204 12.3751C14.6657 12.3806 14.8101 12.3514 14.9417 12.2897C15.0733 12.2281 15.1883 12.1358 15.277 12.0207C15.475 11.7477 15.5742 11.4154 15.5582 11.0785C15.5582 10.141 15.1935 9.67228 14.4642 9.67228H13.5473V8.15634Z" fill="currentColor"/>
</svg>
