<svg width="16" height="16" viewBox="0 0 16 16" fill="none" xmlns="http://www.w3.org/2000/svg">
<path d="M8.48004 1.54002V7.12752L13.75 4.96502C13.2352 3.99103 12.4812 3.16388 11.5589 2.56127C10.6366 1.95866 9.57631 1.60036 8.47754 1.52002C8.47754 1.52002 8.48004 1.53252 8.48004 1.54002Z" fill="#4E5A69"/>
<path d="M8.1225 8.62736C8.04275 8.65799 7.95793 8.67326 7.8725 8.67236H7.8425C7.67674 8.67236 7.51777 8.60652 7.40056 8.48931C7.28335 8.37209 7.2175 8.21312 7.2175 8.04736V1.54736C5.89343 1.707 4.65051 2.27006 3.65736 3.16016C2.6642 4.05027 1.96888 5.22432 1.66571 6.52307C1.36255 7.82181 1.46622 9.18237 1.96266 10.4202C2.4591 11.658 3.32428 12.7132 4.44083 13.4425C5.55739 14.1719 6.87127 14.5401 8.20424 14.4973C9.53721 14.4545 10.8247 14.0027 11.8922 13.2031C12.9596 12.4036 13.7553 11.2951 14.1713 10.028C14.5873 8.76089 14.6034 7.39647 14.2175 6.11986L8.1225 8.62736Z" fill="#7A8694"/>
</svg>
