<svg width="17" height="9" viewBox="0 0 17 9" fill="none" xmlns="http://www.w3.org/2000/svg">
<path d="M3.85645 8H2.33105V2.02734L0.843262 2.60205V1.33447L3.69531 0.168945H3.85645V8ZM10.6831 8H6.07471V6.92578L8.19092 4.23486C8.45947 3.86247 8.65641 3.53662 8.78174 3.25732C8.91064 2.97445 8.9751 2.7041 8.9751 2.44629C8.9751 2.09896 8.91423 1.82682 8.79248 1.62988C8.67432 1.43294 8.50244 1.33447 8.27686 1.33447C8.02979 1.33447 7.83285 1.44906 7.68604 1.67822C7.54281 1.90739 7.47119 2.22965 7.47119 2.64502H5.9458C5.9458 2.1652 6.04427 1.72656 6.24121 1.3291C6.44173 0.931641 6.72103 0.623698 7.0791 0.405273C7.44076 0.183268 7.84896 0.0722656 8.30371 0.0722656C9.00195 0.0722656 9.54264 0.265625 9.92578 0.652344C10.3125 1.03548 10.5059 1.58154 10.5059 2.29053C10.5059 2.73096 10.3984 3.17855 10.1836 3.6333C9.97233 4.08447 9.5874 4.64128 9.02881 5.30371L8.02441 6.73779H10.6831V8ZM12.9927 3.39697H13.7285C14.0078 3.39697 14.2119 3.30029 14.3408 3.10693C14.4733 2.90999 14.5396 2.6486 14.5396 2.32275C14.5396 2.01123 14.4715 1.76953 14.3354 1.59766C14.203 1.4222 14.0239 1.33447 13.7983 1.33447C13.5871 1.33447 13.4134 1.41683 13.2773 1.58154C13.1449 1.74626 13.0786 1.95394 13.0786 2.20459H11.5586C11.5586 1.79639 11.6517 1.43115 11.8379 1.10889C12.0277 0.78304 12.2909 0.528809 12.6274 0.346191C12.9676 0.163574 13.3436 0.0722656 13.7554 0.0722656C14.4751 0.0722656 15.0391 0.270996 15.4473 0.668457C15.8555 1.06592 16.0596 1.61019 16.0596 2.30127C16.0596 2.65576 15.9665 2.98519 15.7803 3.28955C15.5977 3.59033 15.356 3.82129 15.0552 3.98242C15.424 4.13997 15.6979 4.3763 15.877 4.69141C16.0596 5.00651 16.1509 5.37891 16.1509 5.80859C16.1509 6.50326 15.9289 7.06006 15.4849 7.479C15.0444 7.89795 14.4644 8.10742 13.7446 8.10742C13.075 8.10742 12.5308 7.90153 12.1118 7.48975C11.6965 7.07438 11.4888 6.53011 11.4888 5.85693H13.0088C13.0088 6.13623 13.0822 6.37077 13.229 6.56055C13.3758 6.75033 13.562 6.84521 13.7876 6.84521C14.049 6.84521 14.2549 6.74854 14.4053 6.55518C14.5592 6.36182 14.6362 6.104 14.6362 5.78174C14.6362 5.01188 14.3372 4.62516 13.7393 4.62158H12.9927V3.39697Z" fill="#7A8694"/>
</svg>
