<svg viewBox="0 0 24 24" fill="none" xmlns="http://www.w3.org/2000/svg">
<path d="M20 21H4C2.89543 21 2 20.1046 2 19V5C2 3.89543 2.89543 3 4 3H20C21.1046 3 22 3.89543 22 5V19C22 20.1046 21.1046 21 20 21ZM4 7V19H20V7H4Z" fill="currentColor"/>
<path d="M8.80584 11.456L8.39784 13.88H9.22984L8.82184 11.456H8.80584ZM9.74984 10.288L11.1418 16H9.55784L9.40584 15H8.22184L8.06984 16H6.50984L7.87784 10.288H9.74984Z" fill="currentColor"/>
<path d="M12.8192 12.752V11.36H13.0992C13.4832 11.36 13.6752 11.592 13.6752 12.056C13.6752 12.296 13.6245 12.472 13.5232 12.584C13.4272 12.696 13.2858 12.752 13.0992 12.752H12.8192ZM11.3312 10.288V16H12.8192V13.824H13.3392C13.9525 13.824 14.4165 13.6773 14.7312 13.384C15.0512 13.0853 15.2112 12.64 15.2112 12.048C15.2112 11.7973 15.1792 11.5653 15.1152 11.352C15.0512 11.1387 14.9498 10.9547 14.8112 10.8C14.6778 10.64 14.5072 10.5147 14.2992 10.424C14.0912 10.3333 13.8458 10.288 13.5632 10.288H11.3312Z" fill="currentColor"/>
<path d="M15.628 10.288V16H17.116V10.288H15.628Z" fill="currentColor"/>
</svg>
