<svg width="196" height="50"  viewBox="0 0 600 152" fill="none" xmlns="http://www.w3.org/2000/svg"><path fill="#fff" d="M0 0h600v152H0z"/><path d="M138.225 132H81.24V74.992h56.985V132Zm-44.782-12.208h32.579V87.2H93.443v32.592Z" fill="#F0227B"/><path d="M109.732 77.008c-15.73 0-28.492-12.768-28.492-28.504S94.003 20 109.732 20c15.73 0 28.493 12.768 28.493 28.504s-12.819 28.504-28.493 28.504Zm0-44.8c-8.956 0-16.289 7.336-16.289 16.296 0 8.96 7.277 16.296 16.289 16.296 9.013 0 16.29-7.336 16.29-16.296 0-8.96-7.333-16.296-16.29-16.296Z" fill="#3A86FF"/><path d="M88.349 132H20l34.146-59.192L88.35 132Zm-47.19-12.208h26.03L54.146 97.224 41.16 119.792Z" fill="#FFBE0B"/><path d="M163.639 84.288c0-21.728 17.465-35.952 37.281-35.952 11.867 0 21.551 5.264 27.877 13.216l-12.035 9.52c-3.527-4.256-9.405-6.888-15.562-6.888-11.867 0-20.376 8.512-20.376 20.104 0 11.424 8.509 20.272 20.376 20.272 6.157 0 12.035-2.632 15.562-6.888l12.035 9.52c-6.326 7.952-16.01 13.216-27.877 13.216-19.816 0-37.281-14.392-37.281-36.12ZM286.845 50.128h17.017v68.544h-17.017V107.92c-4.534 7.504-13.658 12.488-23.454 12.488-18.361 0-33.027-14.84-33.027-36.12 0-20.664 14.106-35.952 33.418-35.952 9.405 0 18.473 4.088 23.007 11.312v-9.52h.056Zm-.336 34.16c0-11.76-9.684-20.104-19.816-20.104-11.027 0-19.368 9.072-19.368 20.104s8.397 20.272 19.536 20.272c10.58 0 19.648-8.792 19.648-20.272ZM378.424 80.2v38.416h-17.017V81.32c0-11.032-6.605-16.856-14.218-16.856-7.781 0-17.465 4.536-17.465 17.752v36.4h-17.017V50.128h17.017v10.864c3.526-8.68 14.218-12.6 21.271-12.6 17.577-.056 27.429 11.872 27.429 31.808ZM430.539 50.128h18.473l-28.885 68.544h-15.561l-28.605-68.544h18.361l18.192 46.928 18.025-46.928ZM499.392 50.128h17.017v68.544h-17.017V107.92c-4.534 7.504-13.658 12.488-23.454 12.488-18.361 0-33.027-14.84-33.027-36.12 0-20.664 14.106-35.952 33.419-35.952 9.404 0 18.472 4.088 23.006 11.312v-9.52h.056Zm-.28 34.16c0-11.76-9.684-20.104-19.816-20.104-11.027 0-19.368 9.072-19.368 20.104s8.341 20.272 19.536 20.272c10.58 0 19.648-8.792 19.648-20.272ZM524.47 97.504h16.01c0 4.704 4.086 9.072 11.307 9.072 6.774 0 11.14-3.36 11.14-7.784 0-3.808-2.911-5.6-8.061-6.776l-9.068-2.352c-15.394-4.088-19.368-12.32-19.368-21 0-10.696 10.579-20.384 25.525-20.384 12.147 0 25.974 6.16 25.806 21.448h-16.29c0-4.704-4.254-7.616-9.068-7.616-5.262 0-8.956 3.08-8.956 7.336 0 3.528 3.358 5.6 7.333 6.44l11.027 2.912C577.201 82.776 580 92.464 580 98.736c0 13.944-13.938 21.56-27.877 21.56-13.714.112-27.373-8.12-27.653-22.792Z" fill="#2A316B"/></svg>