<svg width="32" height="30" viewBox="0 0 122 116" fill="none" xmlns="http://www.w3.org/2000/svg">
<path d="M121.53 115.085H62.9518V56.507H121.53V115.085ZM75.496 102.541H108.986V69.0512H75.496V102.541Z" fill="#F0227B"/>
<path d="M92.2409 58.5785C76.0715 58.5785 62.9518 45.4588 62.9518 29.2894C62.9518 13.1199 76.0715 0.000244141 92.2409 0.000244141C108.41 0.000244141 121.53 13.1199 121.53 29.2894C121.53 45.4588 108.353 58.5785 92.2409 58.5785ZM92.2409 12.5445C83.0341 12.5445 75.496 20.0826 75.496 29.2894C75.496 38.4961 82.9766 46.0342 92.2409 46.0342C101.505 46.0342 108.986 38.4961 108.986 29.2894C108.986 20.0826 101.448 12.5445 92.2409 12.5445Z" fill="#3A86FF"/>
<path d="M70.2593 115.085H0L35.1009 54.2627L70.2593 115.085ZM21.751 102.541H48.5083L35.1009 79.3512L21.751 102.541Z" fill="#FFBE0B"/>
</svg>
