<svg width="15" height="15" viewBox="0 0 200 200" fill="none" xmlns="http://www.w3.org/2000/svg">
<path d="M180 175.515H102.879V98.3936H180V175.515ZM119.394 158.999H163.485V114.909H119.394V158.999Z" fill="#F0227B"/>
<path d="M141.44 101.121C120.152 101.121 102.879 83.8483 102.879 62.5605C102.879 41.2727 120.152 24 141.44 24C162.727 24 180 41.2727 180 62.5605C180 83.8483 162.652 101.121 141.44 101.121ZM141.44 40.5151C129.318 40.5151 119.394 50.4393 119.394 62.5605C119.394 74.6817 129.243 84.6059 141.44 84.6059C153.636 84.6059 163.485 74.6817 163.485 62.5605C163.485 50.4393 153.561 40.5151 141.44 40.5151Z" fill="#3A86FF"/>
<path d="M112.5 175.515H20L66.212 95.439L112.5 175.515ZM48.6363 158.999H83.8634L66.212 128.469L48.6363 158.999Z" fill="#FFBE0B"/>
</svg>
