<svg width="102" height="20" viewBox="0 0 102 20" fill="none" xmlns="http://www.w3.org/2000/svg">
<g clip-path="url(#clip0)">
<path d="M21.0228 20.0001H10.8896V9.82007H21.0228V20.0001ZM13.0596 17.8201H18.8528V12.0001H13.0596V17.8201Z" fill="white"/>
<path d="M15.9562 10.18C13.1592 10.18 10.8896 7.9 10.8896 5.09C10.8896 2.28 13.1592 0 15.9562 0C18.7533 0 21.0228 2.28 21.0228 5.09C21.0228 7.9 18.7433 10.18 15.9562 10.18ZM15.9562 2.18C14.3636 2.18 13.0596 3.49 13.0596 5.09C13.0596 6.69 14.3536 8 15.9562 8C17.5588 8 18.8528 6.69 18.8528 5.09C18.8528 3.49 17.5489 2.18 15.9562 2.18Z" fill="white"/>
<path d="M12.1538 19.9999H0L6.07192 9.42993L12.1538 19.9999ZM3.7626 17.8199H8.39119L6.07192 13.7899L3.7626 17.8199Z" fill="white"/>
<path d="M27.0349 11.4801C27.0349 7.60006 30.1405 5.06006 33.6643 5.06006C35.7745 5.06006 37.4965 6.00006 38.6213 7.42006L36.4812 9.12006C35.8541 8.36006 34.809 7.89006 33.714 7.89006C31.6038 7.89006 30.0908 9.41006 30.0908 11.4801C30.0908 13.5201 31.6038 15.1001 33.714 15.1001C34.809 15.1001 35.8541 14.6301 36.4812 13.8701L38.6213 15.5701C37.4965 16.9901 35.7745 17.9301 33.6643 17.9301C30.1405 17.9301 27.0349 15.3601 27.0349 11.4801Z" fill="white"/>
<path d="M48.9437 5.38006H51.9697V17.6201H48.9437V15.7001C48.1374 17.0401 46.5149 17.9301 44.773 17.9301C41.5081 17.9301 38.9001 15.2801 38.9001 11.4801C38.9001 7.79006 41.4085 5.06006 44.8427 5.06006C46.5149 5.06006 48.1275 5.79006 48.9337 7.08006V5.38006H48.9437ZM48.884 11.4801C48.884 9.38006 47.1619 7.89006 45.3603 7.89006C43.3993 7.89006 41.9162 9.51006 41.9162 11.4801C41.9162 13.4501 43.4093 15.1001 45.3901 15.1001C47.2714 15.1001 48.884 13.5301 48.884 11.4801Z" fill="white"/>
<path d="M65.2282 10.7501V17.6101H62.2022V10.9501C62.2022 8.9801 61.0276 7.9401 59.6739 7.9401C58.2903 7.9401 56.5682 8.7501 56.5682 11.1101V17.6101H53.5422V5.3801H56.5682V7.3201C57.1953 5.7701 59.0965 5.0701 60.3507 5.0701C63.4763 5.0601 65.2282 7.1901 65.2282 10.7501Z" fill="white"/>
<path d="M74.4954 5.38013H77.7802L72.644 17.6201H69.8768L64.7903 5.38013H68.0552L71.2902 13.7601L74.4954 5.38013Z" fill="white"/>
<path d="M86.7389 5.38006H89.7649V17.6201H86.7389V15.7001C85.9326 17.0401 84.3101 17.9301 82.5681 17.9301C79.3032 17.9301 76.6953 15.2801 76.6953 11.4801C76.6953 7.79006 79.2037 5.06006 82.6378 5.06006C84.3101 5.06006 85.9226 5.79006 86.7289 7.08006V5.38006H86.7389ZM86.6891 11.4801C86.6891 9.38006 84.967 7.89006 83.1654 7.89006C81.2045 7.89006 79.7213 9.51006 79.7213 11.4801C79.7213 13.4501 81.2045 15.1001 83.1952 15.1001C85.0765 15.1001 86.6891 13.5301 86.6891 11.4801Z" fill="white"/>
<path d="M91.1982 13.84H94.0451C94.0451 14.68 94.7717 15.46 96.0558 15.46C97.2602 15.46 98.0366 14.86 98.0366 14.07C98.0366 13.39 97.519 13.07 96.6032 12.86L94.9907 12.44C92.2534 11.71 91.5466 10.24 91.5466 8.69005C91.5466 6.78005 93.4279 5.05005 96.0856 5.05005C98.2456 5.05005 100.704 6.15005 100.674 8.88005H97.7778C97.7778 8.04005 97.0213 7.52005 96.1653 7.52005C95.2296 7.52005 94.5726 8.07005 94.5726 8.83005C94.5726 9.46005 95.1699 9.83005 95.8766 9.98005L97.8375 10.5C100.575 11.21 101.073 12.94 101.073 14.06C101.073 16.55 98.594 17.91 96.1155 17.91C93.6768 17.93 91.248 16.46 91.1982 13.84Z" fill="white"/>
</g>
<defs>
<clipPath id="clip0">
<rect width="101.053" height="20" fill="white"/>
</clipPath>
</defs>
</svg>
