<svg xmlns="http://www.w3.org/2000/svg" viewBox="0 0 64 64"><defs><style>.cls-1{fill:none;}.cls-2{fill:#231f20;}</style></defs><g id="Layer_5" data-name="Layer 5"><path class="cls-1" d="M16.14,31.34H46V20.82H11V39l1.8-4.2C13.67,32.87,14.32,31.34,16.14,31.34Z"/><path class="cls-1" d="M17.61,36.34c-.06.12-.12.25-.17.37l0,.06L12.18,49H46V36.34Z"/><path class="cls-2" d="M9.36,54h0a3.23,3.23,0,0,1-.93-.15A3,3,0,0,0,9.36,54Z"/><path class="cls-2" d="M50.69,51.93a1.3,1.3,0,0,1-.08.17A.89.89,0,0,0,50.69,51.93Z"/><path class="cls-2" d="M6.05,50.93a3.06,3.06,0,0,0,2.4,2.93A3.33,3.33,0,0,1,6.05,50.93Z"/><path class="cls-2" d="M47.61,54h.3a2.77,2.77,0,0,0,2.7-1.91A3.35,3.35,0,0,1,47.61,54Z"/><path class="cls-2" d="M54.67,31.34H51V19.16a3.35,3.35,0,0,0-3.34-3.34H32.34C29.11,11.07,29,9.93,26,10H9.36A3.35,3.35,0,0,0,6,13.34V50.67c0,.09,0,.17,0,.26a3.33,3.33,0,0,0,2.4,2.93,3.23,3.23,0,0,0,.93.15H47.61a3.35,3.35,0,0,0,3-1.91,1.3,1.3,0,0,0,.08-.17c.19-.41.36-.87.53-1.36L57.93,35A3.1,3.1,0,0,0,54.67,31.34ZM11,20.82H46V31.34H16.14c-1.82,0-2.47,1.53-3.31,3.44L11,39ZM51,38.56l-4.32,10-.06.15-.06.15,0,.12H12.18l5.24-12.24,0-.06c0-.12.11-.25.17-.37H51.9Z"/></g></svg>