<svg width="20" height="10" viewBox="0 0 20 10" fill="none" xmlns="http://www.w3.org/2000/svg">
<path d="M14.3751 10H12.1157C11.8671 10 11.6286 9.90123 11.4528 9.72541C11.277 9.5496 11.1782 9.31114 11.1782 9.0625C11.1782 8.81386 11.277 8.5754 11.4528 8.39959C11.6286 8.22377 11.8671 8.125 12.1157 8.125H14.3751C15.2039 8.125 15.9988 7.79576 16.5848 7.20971C17.1709 6.62366 17.5001 5.8288 17.5001 5C17.5001 4.1712 17.1709 3.37634 16.5848 2.79029C15.9988 2.20424 15.2039 1.875 14.3751 1.875H12.1157C11.8671 1.875 11.6286 1.77623 11.4528 1.60041C11.277 1.4246 11.1782 1.18614 11.1782 0.9375C11.1782 0.68886 11.277 0.450403 11.4528 0.274587C11.6286 0.0987719 11.8671 0 12.1157 0H14.3751C15.7012 0 16.973 0.526784 17.9106 1.46447C18.8483 2.40215 19.3751 3.67392 19.3751 5C19.3751 6.32608 18.8483 7.59785 17.9106 8.53553C16.973 9.47322 15.7012 10 14.3751 10Z" fill="#F5B656"/>
<path d="M7.74063 10H5.625C4.29892 10 3.02715 9.47322 2.08947 8.53553C1.15178 7.59785 0.625 6.32608 0.625 5C0.625 3.67392 1.15178 2.40215 2.08947 1.46447C3.02715 0.526784 4.29892 0 5.625 0H7.74063C7.98927 0 8.22772 0.0987719 8.40354 0.274587C8.57935 0.450403 8.67813 0.68886 8.67813 0.9375C8.67813 1.18614 8.57935 1.4246 8.40354 1.60041C8.22772 1.77623 7.98927 1.875 7.74063 1.875H5.625C4.7962 1.875 4.00134 2.20424 3.41529 2.79029C2.82924 3.37634 2.5 4.1712 2.5 5C2.5 5.8288 2.82924 6.62366 3.41529 7.20971C4.00134 7.79576 4.7962 8.125 5.625 8.125H7.74063C7.98927 8.125 8.22772 8.22377 8.40354 8.39959C8.57935 8.5754 8.67813 8.81386 8.67813 9.0625C8.67813 9.31114 8.57935 9.5496 8.40354 9.72541C8.22772 9.90123 7.98927 10 7.74063 10Z" fill="#F5B656"/>
<path d="M13.9907 5.9375H6.17822C5.92958 5.9375 5.69113 5.83873 5.51531 5.66291C5.33949 5.4871 5.24072 5.24864 5.24072 5C5.24072 4.75136 5.33949 4.5129 5.51531 4.33709C5.69113 4.16127 5.92958 4.0625 6.17822 4.0625H13.9907C14.2394 4.0625 14.4778 4.16127 14.6536 4.33709C14.8295 4.5129 14.9282 4.75136 14.9282 5C14.9282 5.24864 14.8295 5.4871 14.6536 5.66291C14.4778 5.83873 14.2394 5.9375 13.9907 5.9375Z" fill="#F5B656"/>
</svg>
