<svg width="13" height="13" viewBox="0 0 13 13" fill="none" xmlns="http://www.w3.org/2000/svg">
<g clip-path="url(#clip0_6_30)">
<path d="M1.824 12.484C1.512 12.484 1.26 12.392 1.068 12.208C0.868 12.024 0.768 11.792 0.768 11.512C0.768 11.32 0.824 11.16 0.936 11.032C1.048 10.912 1.196 10.852 1.38 10.852C1.54 10.852 1.672 10.9 1.776 10.996C1.88 11.1 1.932 11.236 1.932 11.404C1.932 11.54 1.9 11.652 1.836 11.74C1.772 11.82 1.74 11.876 1.74 11.908C1.74 12.028 1.808 12.088 1.944 12.088C2.112 12.088 2.264 12 2.4 11.824C2.528 11.656 2.64 11.436 2.736 11.164C2.848 10.86 2.96 10.456 3.072 9.952C3.192 9.448 3.32 8.844 3.456 8.14L4.068 5.08H3.24L3.336 4.588H4.176C4.432 3.588 4.788 2.84 5.244 2.344C5.7 1.848 6.212 1.6 6.78 1.6C7.18 1.6 7.488 1.688 7.704 1.864C7.928 2.032 8.04 2.256 8.04 2.536C8.04 2.968 7.832 3.184 7.416 3.184C7.256 3.184 7.116 3.128 6.996 3.016C6.884 2.904 6.828 2.772 6.828 2.62C6.828 2.508 6.86 2.408 6.924 2.32C6.988 2.232 7.02 2.16 7.02 2.104C7.02 2.016 6.956 1.972 6.828 1.972C6.588 1.972 6.372 2.176 6.18 2.584C5.98 3.008 5.78 3.676 5.58 4.588H6.6L6.528 5.08H5.508L4.884 7.984C4.668 9 4.424 9.84 4.152 10.504C3.888 11.176 3.568 11.672 3.192 11.992C2.824 12.32 2.368 12.484 1.824 12.484ZM9.81703 10.144C9.59303 10.144 9.42503 10.076 9.31303 9.94C9.20103 9.804 9.08903 9.476 8.97703 8.956L8.73703 7.84L7.88503 9.04C7.63703 9.392 7.40503 9.66 7.18903 9.844C6.98103 10.02 6.74503 10.108 6.48103 10.108C6.32103 10.108 6.19303 10.064 6.09703 9.976C6.00103 9.88 5.95303 9.752 5.95303 9.592C5.95303 9.448 6.00103 9.328 6.09703 9.232C6.18503 9.136 6.29703 9.088 6.43303 9.088C6.54503 9.088 6.64503 9.116 6.73303 9.172C6.83703 9.236 6.93703 9.268 7.03303 9.268C7.19303 9.268 7.37703 9.128 7.58503 8.848L8.65303 7.36L8.29303 5.62C8.23703 5.364 8.15303 5.18 8.04103 5.068C7.93703 4.956 7.77703 4.9 7.56103 4.9C7.45703 4.9 7.35703 4.904 7.26103 4.912C7.17303 4.92 7.08903 4.932 7.00903 4.948L7.04503 4.72C7.51703 4.664 7.89703 4.584 8.18503 4.48C8.32103 4.432 8.43703 4.4 8.53303 4.384C8.63703 4.36 8.71703 4.348 8.77303 4.348C8.91703 4.348 9.01303 4.464 9.06103 4.696L9.39703 6.316C9.73303 5.828 10.009 5.444 10.225 5.164C10.441 4.876 10.593 4.692 10.681 4.612C10.769 4.524 10.865 4.464 10.969 4.432C11.081 4.392 11.197 4.372 11.317 4.372C11.693 4.372 11.881 4.532 11.881 4.852C11.881 4.996 11.837 5.112 11.749 5.2C11.661 5.288 11.549 5.332 11.413 5.332C11.293 5.332 11.185 5.304 11.089 5.248C11.033 5.216 10.985 5.196 10.945 5.188C10.913 5.18 10.877 5.176 10.837 5.176C10.757 5.176 10.669 5.216 10.573 5.296C10.501 5.36 10.137 5.852 9.48103 6.772L9.84103 8.44C9.88103 8.592 9.91703 8.728 9.94903 8.848C9.98103 8.96 10.013 9.056 10.045 9.136C10.117 9.296 10.221 9.376 10.357 9.376C10.581 9.376 10.901 9.072 11.317 8.464L11.485 8.656C10.829 9.648 10.273 10.144 9.81703 10.144Z" fill="currentColor"/>
</g>
<defs>
<clipPath id="clip0_6_30">
<rect width="13" height="13" fill="white"/>
</clipPath>
</defs>
</svg>
