<svg width="15" height="11" viewBox="0 0 15 11" fill="none" xmlns="http://www.w3.org/2000/svg">
<g clip-path="url(#clip0_6_26)">
<path d="M1.02 10.07C0.76 10.07 0.55 9.99333 0.39 9.84C0.223333 9.68667 0.14 9.49333 0.14 9.26C0.14 9.1 0.186667 8.96667 0.28 8.86C0.373333 8.76 0.496667 8.71 0.65 8.71C0.783333 8.71 0.893333 8.75 0.98 8.83C1.06667 8.91667 1.11 9.03 1.11 9.17C1.11 9.28333 1.08333 9.37667 1.03 9.45C0.976667 9.51667 0.95 9.56333 0.95 9.59C0.95 9.69 1.00667 9.74 1.12 9.74C1.26 9.74 1.38667 9.66667 1.5 9.52C1.60667 9.38 1.7 9.19667 1.78 8.97C1.87333 8.71667 1.96667 8.38 2.06 7.96C2.16 7.54 2.26667 7.03667 2.38 6.45L2.89 3.9H2.2L2.28 3.49H2.98C3.19333 2.65667 3.49 2.03333 3.87 1.62C4.25 1.20667 4.67667 1 5.15 1C5.48333 1 5.74 1.07333 5.92 1.22C6.10667 1.36 6.2 1.54667 6.2 1.78C6.2 2.14 6.02667 2.32 5.68 2.32C5.54667 2.32 5.43 2.27333 5.33 2.18C5.23667 2.08667 5.19 1.97667 5.19 1.85C5.19 1.75667 5.21667 1.67333 5.27 1.6C5.32333 1.52667 5.35 1.46667 5.35 1.42C5.35 1.34667 5.29667 1.31 5.19 1.31C4.99 1.31 4.81 1.48 4.65 1.82C4.48333 2.17333 4.31667 2.73 4.15 3.49H5L4.94 3.9H4.09L3.57 6.32C3.39 7.16667 3.18667 7.86667 2.96 8.42C2.74 8.98 2.47333 9.39333 2.16 9.66C1.85333 9.93333 1.47333 10.07 1.02 10.07ZM7.68086 8.12C7.49419 8.12 7.35419 8.06333 7.26086 7.95C7.16753 7.83667 7.07419 7.56333 6.98086 7.13L6.78086 6.2L6.07086 7.2C5.86419 7.49333 5.67086 7.71667 5.49086 7.87C5.31753 8.01667 5.12086 8.09 4.90086 8.09C4.76753 8.09 4.66086 8.05333 4.58086 7.98C4.50086 7.9 4.46086 7.79333 4.46086 7.66C4.46086 7.54 4.50086 7.44 4.58086 7.36C4.65419 7.28 4.74753 7.24 4.86086 7.24C4.95419 7.24 5.03753 7.26333 5.11086 7.31C5.19753 7.36333 5.28086 7.39 5.36086 7.39C5.49419 7.39 5.64753 7.27333 5.82086 7.04L6.71086 5.8L6.41086 4.35C6.36419 4.13667 6.29419 3.98333 6.20086 3.89C6.11419 3.79667 5.98086 3.75 5.80086 3.75C5.71419 3.75 5.63086 3.75333 5.55086 3.76C5.47753 3.76667 5.40753 3.77667 5.34086 3.79L5.37086 3.6C5.76419 3.55333 6.08086 3.48667 6.32086 3.4C6.43419 3.36 6.53086 3.33333 6.61086 3.32C6.69753 3.3 6.76419 3.29 6.81086 3.29C6.93086 3.29 7.01086 3.38667 7.05086 3.58L7.33086 4.93C7.61086 4.52333 7.84086 4.20333 8.02086 3.97C8.20086 3.73 8.32753 3.57667 8.40086 3.51C8.47419 3.43667 8.55419 3.38667 8.64086 3.36C8.73419 3.32667 8.83086 3.31 8.93086 3.31C9.24419 3.31 9.40086 3.44333 9.40086 3.71C9.40086 3.83 9.36419 3.92667 9.29086 4C9.21753 4.07333 9.12419 4.11 9.01086 4.11C8.91086 4.11 8.82086 4.08667 8.74086 4.04C8.69419 4.01333 8.65419 3.99667 8.62086 3.99C8.59419 3.98333 8.56419 3.98 8.53086 3.98C8.46419 3.98 8.39086 4.01333 8.31086 4.08C8.25086 4.13333 7.94753 4.54333 7.40086 5.31L7.70086 6.7C7.73419 6.82667 7.76419 6.94 7.79086 7.04C7.81753 7.13333 7.84419 7.21333 7.87086 7.28C7.93086 7.41333 8.01753 7.48 8.13086 7.48C8.31753 7.48 8.58419 7.22667 8.93086 6.72L9.07086 6.88C8.52419 7.70667 8.06086 8.12 7.68086 8.12Z" fill="black"/>
<path d="M14.4118 6.00001C14.4118 6.08531 14.381 6.17064 14.3194 6.23564L12.7438 7.90234C12.6536 7.99772 12.5182 8.0262 12.4003 7.97462C12.2827 7.92297 12.2059 7.80109 12.2059 7.66671V6.66669H10.3151C10.1411 6.66669 10 6.51742 10 6.33335V5.66667C10 5.48261 10.1411 5.33333 10.3151 5.33333H12.2059V4.33331C12.2059 4.19852 12.2827 4.07696 12.4004 4.02539C12.5183 3.9738 12.6537 4.00228 12.7439 4.09766L14.3195 5.76436C14.3812 5.82918 14.4118 5.9146 14.4118 6.00001Z" fill="black"/>
</g>
<defs>
<clipPath id="clip0_6_26">
<rect width="15" height="11" fill="white"/>
</clipPath>
</defs>
</svg>
