<svg width="15" height="11" viewBox="0 0 15 11" fill="none" xmlns="http://www.w3.org/2000/svg">
<g clip-path="url(#clip0_6_33)">
<path d="M6.02 10.07C5.76 10.07 5.55 9.99333 5.39 9.84C5.22333 9.68667 5.14 9.49333 5.14 9.26C5.14 9.1 5.18667 8.96667 5.28 8.86C5.37333 8.76 5.49667 8.71 5.65 8.71C5.78333 8.71 5.89333 8.75 5.98 8.83C6.06667 8.91667 6.11 9.03 6.11 9.17C6.11 9.28333 6.08333 9.37667 6.03 9.45C5.97667 9.51667 5.95 9.56333 5.95 9.59C5.95 9.69 6.00667 9.74 6.12 9.74C6.26 9.74 6.38667 9.66667 6.5 9.52C6.60667 9.38 6.7 9.19667 6.78 8.97C6.87333 8.71667 6.96667 8.38 7.06 7.96C7.16 7.54 7.26667 7.03667 7.38 6.45L7.89 3.9H7.2L7.28 3.49H7.98C8.19333 2.65667 8.49 2.03333 8.87 1.62C9.25 1.20667 9.67667 1 10.15 1C10.4833 1 10.74 1.07333 10.92 1.22C11.1067 1.36 11.2 1.54667 11.2 1.78C11.2 2.14 11.0267 2.32 10.68 2.32C10.5467 2.32 10.43 2.27333 10.33 2.18C10.2367 2.08667 10.19 1.97667 10.19 1.85C10.19 1.75667 10.2167 1.67333 10.27 1.6C10.3233 1.52667 10.35 1.46667 10.35 1.42C10.35 1.34667 10.2967 1.31 10.19 1.31C9.99 1.31 9.81 1.48 9.65 1.82C9.48333 2.17333 9.31667 2.73 9.15 3.49H10L9.94 3.9H9.09L8.57 6.32C8.39 7.16667 8.18667 7.86667 7.96 8.42C7.74 8.98 7.47333 9.39333 7.16 9.66C6.85333 9.93333 6.47333 10.07 6.02 10.07ZM12.6809 8.12C12.4942 8.12 12.3542 8.06333 12.2609 7.95C12.1675 7.83667 12.0742 7.56333 11.9809 7.13L11.7809 6.2L11.0709 7.2C10.8642 7.49333 10.6709 7.71667 10.4909 7.87C10.3175 8.01667 10.1209 8.09 9.90086 8.09C9.76753 8.09 9.66086 8.05333 9.58086 7.98C9.50086 7.9 9.46086 7.79333 9.46086 7.66C9.46086 7.54 9.50086 7.44 9.58086 7.36C9.65419 7.28 9.74753 7.24 9.86086 7.24C9.95419 7.24 10.0375 7.26333 10.1109 7.31C10.1975 7.36333 10.2809 7.39 10.3609 7.39C10.4942 7.39 10.6475 7.27333 10.8209 7.04L11.7109 5.8L11.4109 4.35C11.3642 4.13667 11.2942 3.98333 11.2009 3.89C11.1142 3.79667 10.9809 3.75 10.8009 3.75C10.7142 3.75 10.6309 3.75333 10.5509 3.76C10.4775 3.76667 10.4075 3.77667 10.3409 3.79L10.3709 3.6C10.7642 3.55333 11.0809 3.48667 11.3209 3.4C11.4342 3.36 11.5309 3.33333 11.6109 3.32C11.6975 3.3 11.7642 3.29 11.8109 3.29C11.9309 3.29 12.0109 3.38667 12.0509 3.58L12.3309 4.93C12.6109 4.52333 12.8409 4.20333 13.0209 3.97C13.2009 3.73 13.3275 3.57667 13.4009 3.51C13.4742 3.43667 13.5542 3.38667 13.6409 3.36C13.7342 3.32667 13.8309 3.31 13.9309 3.31C14.2442 3.31 14.4009 3.44333 14.4009 3.71C14.4009 3.83 14.3642 3.92667 14.2909 4C14.2175 4.07333 14.1242 4.11 14.0109 4.11C13.9109 4.11 13.8209 4.08667 13.7409 4.04C13.6942 4.01333 13.6542 3.99667 13.6209 3.99C13.5942 3.98333 13.5642 3.98 13.5309 3.98C13.4642 3.98 13.3909 4.01333 13.3109 4.08C13.2509 4.13333 12.9475 4.54333 12.4009 5.31L12.7009 6.7C12.7342 6.82667 12.7642 6.94 12.7909 7.04C12.8175 7.13333 12.8442 7.21333 12.8709 7.28C12.9309 7.41333 13.0175 7.48 13.1309 7.48C13.3175 7.48 13.5842 7.22667 13.9309 6.72L14.0709 6.88C13.5242 7.70667 13.0609 8.12 12.6809 8.12Z" fill="black"/>
<path d="M1.00001 6.00001C1.00001 6.08531 1.03078 6.17064 1.09233 6.23564L2.66796 7.90234C2.75813 7.99772 2.89357 8.0262 3.01145 7.97462C3.12908 7.92297 3.20589 7.80109 3.20589 7.66671V6.66669H5.09665C5.27066 6.66669 5.41177 6.51742 5.41177 6.33335V5.66667C5.41177 5.48261 5.27066 5.33333 5.09665 5.33333H3.20589V4.33331C3.20589 4.19852 3.12911 4.07696 3.0114 4.02539C2.89352 3.9738 2.75812 4.00228 2.66791 4.09766L1.09228 5.76436C1.03054 5.82918 1.00001 5.9146 1.00001 6.00001Z" fill="black"/>
</g>
<defs>
<clipPath id="clip0_6_33">
<rect width="15" height="11" fill="white"/>
</clipPath>
</defs>
</svg>
