<svg viewBox="0 0 20 20" fill="none" xmlns="http://www.w3.org/2000/svg">
<path d="M2.8125 12.1875C4.02062 12.1875 5 11.2081 5 10C5 8.79188 4.02062 7.8125 2.8125 7.8125C1.60438 7.8125 0.625 8.79188 0.625 10C0.625 11.2081 1.60438 12.1875 2.8125 12.1875Z" fill="currentColor"/>
<path d="M10 12.1875C11.2081 12.1875 12.1875 11.2081 12.1875 10C12.1875 8.79188 11.2081 7.8125 10 7.8125C8.79188 7.8125 7.8125 8.79188 7.8125 10C7.8125 11.2081 8.79188 12.1875 10 12.1875Z" fill="currentColor"/>
<path d="M17.1875 12.1875C18.3956 12.1875 19.375 11.2081 19.375 10C19.375 8.79188 18.3956 7.8125 17.1875 7.8125C15.9794 7.8125 15 8.79188 15 10C15 11.2081 15.9794 12.1875 17.1875 12.1875Z" fill="currentColor"/>
</svg>
