<svg width="50" height="25" viewBox="0 0 50 25" fill="none" xmlns="http://www.w3.org/2000/svg">
<rect width="24" height="4" fill="#9AA2E3"/>
<rect y="12" width="24" height="4" fill="#9AA2E3"/>
<rect y="6" width="24" height="4" fill="#9AA2E3"/>
<rect y="18" width="24" height="4" fill="#9AA2E3"/>
<path d="M10.544 5.256H12.506L17.996 18H15.404L14.216 15.084H8.69L7.538 18H5L10.544 5.256ZM13.424 13.14L11.462 7.956L9.464 13.14H13.424Z" fill="black"/>
<rect x="26" width="24" height="4" fill="#6EE2C0"/>
<rect x="26" y="6" width="24" height="4" fill="#6EE2C0"/>
<rect x="26" y="12" width="24" height="4" fill="#6EE2C0"/>
<path d="M33.422 5.256H38.39C38.87 5.256 39.344 5.316 39.812 5.436C40.28 5.544 40.694 5.73 41.054 5.994C41.426 6.246 41.726 6.576 41.954 6.984C42.182 7.392 42.296 7.884 42.296 8.46C42.296 9.18 42.092 9.774 41.684 10.242C41.276 10.71 40.742 11.046 40.082 11.25V11.286C40.478 11.334 40.844 11.448 41.18 11.628C41.528 11.796 41.822 12.018 42.062 12.294C42.302 12.558 42.488 12.87 42.62 13.23C42.764 13.578 42.836 13.956 42.836 14.364C42.836 15.06 42.698 15.642 42.422 16.11C42.146 16.566 41.78 16.938 41.324 17.226C40.88 17.502 40.364 17.7 39.776 17.82C39.2 17.94 38.612 18 38.012 18H33.422V5.256ZM35.69 10.44H37.76C38.516 10.44 39.08 10.296 39.452 10.008C39.836 9.708 40.028 9.318 40.028 8.838C40.028 8.286 39.83 7.878 39.434 7.614C39.05 7.338 38.426 7.2 37.562 7.2H35.69V10.44ZM35.69 16.056H37.778C38.066 16.056 38.372 16.038 38.696 16.002C39.032 15.966 39.338 15.882 39.614 15.75C39.89 15.618 40.118 15.432 40.298 15.192C40.478 14.94 40.568 14.604 40.568 14.184C40.568 13.512 40.346 13.044 39.902 12.78C39.47 12.516 38.792 12.384 37.868 12.384H35.69V16.056Z" fill="black"/>
</svg>
