<svg viewBox="0 0 16 18" fill="none" xmlns="http://www.w3.org/2000/svg">
<path d="M11.8536 0.646447C11.6583 0.451184 11.3417 0.451184 11.1464 0.646447L7.96447 3.82843C7.7692 4.02369 7.7692 4.34027 7.96447 4.53553C8.15973 4.7308 8.47631 4.7308 8.67157 4.53553L11.5 1.70711L14.3284 4.53553C14.5237 4.7308 14.8403 4.7308 15.0355 4.53553C15.2308 4.34027 15.2308 4.02369 15.0355 3.82843L11.8536 0.646447ZM11 1L11 17L12 17L12 1L11 1Z" fill="currentColor"/>
<path d="M3.64645 17.3536C3.84171 17.5488 4.15829 17.5488 4.35355 17.3536L7.53553 14.1716C7.7308 13.9763 7.7308 13.6597 7.53553 13.4645C7.34027 13.2692 7.02369 13.2692 6.82843 13.4645L4 16.2929L1.17157 13.4645C0.976311 13.2692 0.659728 13.2692 0.464466 13.4645C0.269204 13.6597 0.269204 13.9763 0.464466 14.1716L3.64645 17.3536ZM4.5 17L4.5 1L3.5 1L3.5 17L4.5 17Z" fill="currentColor"/>
</svg>
