<svg width="50" height="25" viewBox="0 0 50 25" fill="none" xmlns="http://www.w3.org/2000/svg">
<rect x="26" width="24" height="4" fill="#9AA2E3"/>
<rect x="26" y="6" width="24" height="4" fill="#9AA2E3"/>
<rect x="26" y="12" width="24" height="4" fill="#9AA2E3"/>
<path d="M36.544 5.256H38.506L43.996 18H41.404L40.216 15.084H34.69L33.538 18H31L36.544 5.256ZM39.424 13.14L37.462 7.956L35.464 13.14H39.424Z" fill="black"/>
<rect width="24" height="4" fill="#6EE2C0"/>
<rect y="6" width="24" height="4" fill="#6EE2C0"/>
<rect y="12" width="24" height="4" fill="#6EE2C0"/>
<rect y="18" width="24" height="4" fill="#6EE2C0"/>
<path d="M7.422 5.256H12.39C12.87 5.256 13.344 5.316 13.812 5.436C14.28 5.544 14.694 5.73 15.054 5.994C15.426 6.246 15.726 6.576 15.954 6.984C16.182 7.392 16.296 7.884 16.296 8.46C16.296 9.18 16.092 9.774 15.684 10.242C15.276 10.71 14.742 11.046 14.082 11.25V11.286C14.478 11.334 14.844 11.448 15.18 11.628C15.528 11.796 15.822 12.018 16.062 12.294C16.302 12.558 16.488 12.87 16.62 13.23C16.764 13.578 16.836 13.956 16.836 14.364C16.836 15.06 16.698 15.642 16.422 16.11C16.146 16.566 15.78 16.938 15.324 17.226C14.88 17.502 14.364 17.7 13.776 17.82C13.2 17.94 12.612 18 12.012 18H7.422V5.256ZM9.69 10.44H11.76C12.516 10.44 13.08 10.296 13.452 10.008C13.836 9.708 14.028 9.318 14.028 8.838C14.028 8.286 13.83 7.878 13.434 7.614C13.05 7.338 12.426 7.2 11.562 7.2H9.69V10.44ZM9.69 16.056H11.778C12.066 16.056 12.372 16.038 12.696 16.002C13.032 15.966 13.338 15.882 13.614 15.75C13.89 15.618 14.118 15.432 14.298 15.192C14.478 14.94 14.568 14.604 14.568 14.184C14.568 13.512 14.346 13.044 13.902 12.78C13.47 12.516 12.792 12.384 11.868 12.384H9.69V16.056Z" fill="black"/>
</svg>
