<svg width="13" height="13" viewBox="0 0 13 13" fill="none" xmlns="http://www.w3.org/2000/svg">
<path d="M12.0092 10.9284L9.02541 7.94247C9.73391 6.96175 10.047 5.75015 9.90238 4.54895C9.75774 3.34776 9.16597 2.24511 8.24492 1.4606C7.32387 0.676097 6.14112 0.267295 4.93221 0.31561C3.7233 0.363925 2.57695 0.865812 1.72144 1.72132C0.865933 2.57683 0.364047 3.72318 0.315732 4.93209C0.267417 6.141 0.676219 7.32375 1.46073 8.2448C2.24523 9.16585 3.34788 9.75763 4.54907 9.90226C5.75027 10.0469 6.96187 9.73379 7.94259 9.02529L10.9285 12.009L12.0092 10.9284ZM1.84384 5.12497C1.84384 4.476 2.03629 3.84161 2.39683 3.30201C2.75738 2.76241 3.26984 2.34184 3.86941 2.09349C4.46898 1.84514 5.12873 1.78016 5.76523 1.90677C6.40173 2.03338 6.9864 2.34589 7.44529 2.80478C7.90418 3.26367 8.21669 3.84833 8.34329 4.48483C8.4699 5.12133 8.40492 5.78108 8.15657 6.38065C7.90822 6.98022 7.48766 7.49269 6.94806 7.85323C6.40846 8.21378 5.77406 8.40622 5.12509 8.40622C4.25485 8.40622 3.42025 8.06052 2.8049 7.44517C2.18955 6.82981 1.84384 5.99521 1.84384 5.12497Z" fill="currentColor"/>
</svg>
