<svg width="14" height="15" viewBox="0 0 14 15" fill="none" xmlns="http://www.w3.org/2000/svg">
<path d="M12.0342 10.8035L9.07559 9.07591C8.65995 8.83402 8.12844 8.97788 7.88788 9.39799C7.79467 9.56349 7.75815 9.74554 7.77578 9.9225V13.2987C7.77578 13.7812 8.16371 14.1733 8.64232 14.1733C9.11967 14.1733 9.5076 13.7812 9.5076 13.2987V11.3572L11.1651 12.3248C11.5807 12.5679 12.1135 12.4228 12.3528 12.0027C12.5934 11.5826 12.4511 11.0453 12.0342 10.8035Z" fill="#29B5E8"/>
<path d="M4.67609 7.10056C4.68113 6.78866 4.51865 6.4984 4.25164 6.34181L1.29306 4.61552C1.16459 4.54041 1.01723 4.50095 0.869863 4.50095C0.566322 4.50095 0.284193 4.66517 0.133052 4.92997C-0.101216 5.3399 0.0385894 5.86568 0.44415 6.10247L2.14952 7.09674L0.44415 8.09228C0.247667 8.20686 0.106603 8.39146 0.0486654 8.61297C-0.0105314 8.83449 0.0196967 9.06619 0.133052 9.26478C0.284193 9.52958 0.566322 9.69381 0.868603 9.69381C1.01723 9.69381 1.16459 9.65435 1.29306 9.57923L4.25164 7.85295C4.51613 7.69763 4.67861 7.40992 4.67609 7.10056Z" fill="#29B5E8"/>
<path d="M1.9644 3.39223L4.92297 5.11852C5.26808 5.32094 5.69379 5.25474 5.96585 4.98612C6.1384 4.82571 6.24546 4.59656 6.24546 4.34194V0.881733C6.24546 0.397966 5.85753 0.00585938 5.38018 0.00585938C4.90156 0.00585938 4.51364 0.397966 4.51364 0.881733V2.85118L2.83345 1.87091C2.41782 1.62775 1.88631 1.77161 1.64574 2.19172C1.40518 2.61184 1.54876 3.14908 1.9644 3.39223Z" fill="#29B5E8"/>
<path d="M8.61708 7.2406C8.61708 7.3068 8.5793 7.39846 8.53269 7.44684L7.36009 8.63207C7.31349 8.67917 7.22155 8.71737 7.15605 8.71737H6.85755C6.79206 8.71737 6.70011 8.67917 6.65351 8.63207L5.47965 7.44684C5.43305 7.39846 5.39526 7.3068 5.39526 7.2406V6.93888C5.39526 6.87141 5.43305 6.77975 5.47965 6.73265L6.65351 5.54614C6.70011 5.49904 6.79206 5.46085 6.85755 5.46085H7.15605C7.22155 5.46085 7.31349 5.49904 7.36009 5.54614L8.53269 6.73265C8.5793 6.77975 8.61708 6.87141 8.61708 6.93888V7.2406ZM7.57043 7.09547V7.08274C7.57043 7.03436 7.54272 6.96689 7.50872 6.93125L7.16235 6.58242C7.12834 6.54678 7.06159 6.51877 7.01247 6.51877H6.99988C6.95201 6.51877 6.88526 6.54678 6.84999 6.58242L6.50489 6.93125C6.47088 6.96562 6.44317 7.03309 6.44317 7.08274V7.09547C6.44317 7.14512 6.47088 7.21259 6.50489 7.24697L6.84999 7.59706C6.88526 7.63144 6.95201 7.65944 6.99988 7.65944H7.01247C7.06159 7.65944 7.12834 7.63144 7.16235 7.59706L7.50872 7.24697C7.54272 7.21259 7.57043 7.14512 7.57043 7.09547Z" fill="#29B5E8"/>
<path d="M9.07549 5.11852L12.0341 3.39223C12.4497 3.15035 12.5933 2.61184 12.3527 2.19172C12.1122 1.77161 11.5806 1.62775 11.165 1.87091L9.5075 2.83845V0.881733C9.5075 0.397966 9.11957 0.00585938 8.64222 0.00585938C8.1636 0.00585938 7.77568 0.397966 7.77568 0.881733V4.2732C7.7593 4.44888 7.79331 4.6322 7.88777 4.7977C8.12834 5.21782 8.65985 5.36167 9.07549 5.11852Z" fill="#29B5E8"/>
<path d="M5.5162 8.97402C5.31972 8.93583 5.10938 8.96766 4.92297 9.07587L1.9644 10.8034C1.54876 11.0453 1.40518 11.5825 1.64574 12.0027C1.88631 12.424 2.41782 12.5679 2.83345 12.3247L4.51364 11.3445V13.2986C4.51364 13.7811 4.90156 14.1732 5.38018 14.1732C5.85753 14.1732 6.24546 13.7811 6.24546 13.2986V9.83844C6.24546 9.40178 5.92932 9.04022 5.5162 8.97402Z" fill="#29B5E8"/>
<path d="M13.8832 4.91965C13.6439 4.49826 13.1111 4.35441 12.6955 4.59756L9.73689 6.32385C9.4535 6.48935 9.29733 6.79234 9.30236 7.10042C9.29985 7.40723 9.45602 7.70641 9.73689 7.86936L12.6955 9.59692C13.1111 9.8388 13.6426 9.69494 13.8832 9.27483C14.1238 8.85472 13.9802 8.31748 13.5645 8.07432L11.8894 7.0966L13.5645 6.11888C13.9814 5.877 14.1238 5.33976 13.8832 4.91965Z" fill="#29B5E8"/>
</svg>
