<svg width="20" height="18" viewBox="0 0 16 14" fill="none" xmlns="http://www.w3.org/2000/svg">
<path d="M7.56905 0.7872L0.684053 12.7122C0.64019 12.7882 0.617088 12.8743 0.617065 12.9621C0.617043 13.0498 0.640101 13.136 0.683925 13.212C0.727748 13.288 0.790794 13.3511 0.866733 13.395C0.942671 13.4389 1.02883 13.4621 1.11655 13.4622H14.8866C14.9743 13.4621 15.0604 13.4389 15.1364 13.395C15.2123 13.3511 15.2754 13.288 15.3192 13.212C15.363 13.136 15.3861 13.0498 15.386 12.9621C15.386 12.8743 15.3629 12.7882 15.3191 12.7122L8.43405 0.7872C8.3901 0.71143 8.32701 0.648537 8.25111 0.604818C8.17521 0.561098 8.08915 0.538086 8.00155 0.538086C7.91396 0.538086 7.8279 0.561098 7.752 0.604818C7.67609 0.648537 7.61301 0.71143 7.56905 0.7872Z" fill="#D73F3F"/>
<path d="M8 11.875C8.48325 11.875 8.875 11.4832 8.875 11C8.875 10.5168 8.48325 10.125 8 10.125C7.51675 10.125 7.125 10.5168 7.125 11C7.125 11.4832 7.51675 11.875 8 11.875Z" fill="white"/>
<path d="M7.45306 8.90038L7.13306 4.40039H8.86306L8.54306 8.90038H7.45306Z" fill="white"/>
</svg>
