<svg viewBox="0 0 18 18" fill="none" xmlns="http://www.w3.org/2000/svg">
<path d="M16.0312 7.875H9.28125C8.90829 7.875 8.5506 8.02316 8.28688 8.28688C8.02316 8.5506 7.875 8.90829 7.875 9.28125V16.0312C7.875 16.4042 8.02316 16.7619 8.28688 17.0256C8.5506 17.2893 8.90829 17.4375 9.28125 17.4375H16.0312C16.4042 17.4375 16.7619 17.2893 17.0256 17.0256C17.2893 16.7619 17.4375 16.4042 17.4375 16.0312V9.28125C17.4375 8.90829 17.2893 8.5506 17.0256 8.28688C16.7619 8.02316 16.4042 7.875 16.0312 7.875ZM14.9231 13.9247C15.0552 14.0567 15.1293 14.2358 15.1293 14.4225C15.1293 14.6092 15.0552 14.7883 14.9231 14.9203C14.7911 15.0523 14.612 15.1265 14.4253 15.1265C14.2386 15.1265 14.0595 15.0523 13.9275 14.9203L12.6562 13.6463L11.385 14.9203C11.2527 15.0519 11.0737 15.1257 10.8872 15.1257C10.7006 15.1257 10.5217 15.0519 10.3894 14.9203C10.3239 14.855 10.2719 14.7774 10.2365 14.692C10.2011 14.6066 10.1828 14.515 10.1828 14.4225C10.1828 14.33 10.2011 14.2384 10.2365 14.153C10.2719 14.0676 10.3239 13.99 10.3894 13.9247L11.6606 12.6562L10.3866 11.385C10.2545 11.253 10.1804 11.0739 10.1804 10.8872C10.1804 10.7005 10.2545 10.5214 10.3866 10.3894C10.5186 10.2573 10.6977 10.1832 10.8844 10.1832C11.0711 10.1832 11.2502 10.2573 11.3822 10.3894L12.6562 11.6578L13.9303 10.3837C13.9957 10.3184 14.0733 10.2665 14.1587 10.2311C14.2441 10.1958 14.3357 10.1775 14.4281 10.1775C14.5206 10.1775 14.6121 10.1958 14.6975 10.2311C14.783 10.2665 14.8606 10.3184 14.9259 10.3837C14.9913 10.4491 15.0432 10.5267 15.0785 10.6121C15.1139 10.6976 15.1321 10.7891 15.1321 10.8816C15.1321 10.974 15.1139 11.0656 15.0785 11.151C15.0432 11.2364 14.9913 11.314 14.9259 11.3794L13.6491 12.6562L14.9231 13.9247Z" fill="currentColor"/>
<path d="M8.71875 0.5625H1.96875C1.59579 0.5625 1.2381 0.710658 0.974381 0.974381C0.710658 1.2381 0.5625 1.59579 0.5625 1.96875V8.71875C0.5625 9.09171 0.710658 9.4494 0.974381 9.71312C1.2381 9.97684 1.59579 10.125 1.96875 10.125H8.71875C9.09171 10.125 9.4494 9.97684 9.71312 9.71312C9.97684 9.4494 10.125 9.09171 10.125 8.71875V1.96875C10.125 1.59579 9.97684 1.2381 9.71312 0.974381C9.4494 0.710658 9.09171 0.5625 8.71875 0.5625ZM7.875 4.19625L5.43656 7.09594C5.39831 7.14034 5.35487 7.17999 5.30719 7.21406C5.18285 7.31168 5.02934 7.36475 4.87125 7.36475C4.71316 7.36475 4.55965 7.31168 4.43531 7.21406L2.99813 6.08906C2.92133 6.03397 2.85642 5.96396 2.80729 5.88322C2.75817 5.80247 2.72582 5.71265 2.71219 5.61913C2.69856 5.5256 2.70393 5.43028 2.72797 5.33888C2.75202 5.24747 2.79424 5.16185 2.85212 5.08713C2.91001 5.01241 2.98236 4.95013 3.06486 4.90401C3.14735 4.85789 3.2383 4.82887 3.33227 4.8187C3.42624 4.80852 3.52129 4.8174 3.61175 4.84479C3.70221 4.87218 3.78621 4.91753 3.85875 4.97813L4.78125 5.70375L6.81469 3.29062C6.86926 3.2068 6.94108 3.13559 7.02537 3.08174C7.10965 3.02788 7.20446 2.99263 7.30345 2.97834C7.40244 2.96404 7.50335 2.97103 7.59942 2.99884C7.6955 3.02665 7.78454 3.07463 7.86059 3.13959C7.93665 3.20455 7.99797 3.28499 8.04046 3.37554C8.08295 3.46608 8.10564 3.56465 8.107 3.66466C8.10836 3.76467 8.08837 3.86382 8.04837 3.95549C8.00836 4.04716 7.94926 4.12924 7.875 4.19625Z" fill="currentColor"/>
</svg>
