<svg viewBox="0 0 18 18" fill="none" xmlns="http://www.w3.org/2000/svg">
<path d="M13.6856 6.94136V3.74355C13.6856 3.37059 13.5375 3.0129 13.2737 2.74918C13.01 2.48546 12.6523 2.3373 12.2794 2.3373H11.7562V0.91136C11.7574 0.865965 11.7494 0.820803 11.7328 0.778536C11.7162 0.736268 11.6913 0.69775 11.6596 0.66525C11.6279 0.63275 11.59 0.606925 11.5481 0.589298C11.5063 0.57167 11.4613 0.562596 11.4159 0.56261H10.4062C10.3611 0.56297 10.3164 0.572319 10.2749 0.590113C10.2334 0.607907 10.1958 0.633789 10.1644 0.666251C10.133 0.698713 10.1084 0.737105 10.0919 0.779187C10.0755 0.821269 10.0676 0.8662 10.0687 0.91136V2.3373H4.44375V0.902923C4.44527 0.858534 4.43779 0.814298 4.42176 0.772878C4.40573 0.731458 4.38147 0.693713 4.35046 0.661915C4.31946 0.630118 4.28233 0.604927 4.24133 0.58786C4.20032 0.570794 4.15629 0.562204 4.11188 0.56261H3.09375C3.04874 0.561451 3.00397 0.56946 2.96216 0.586152C2.92035 0.602844 2.88237 0.627869 2.85053 0.659704C2.8187 0.691539 2.79367 0.729518 2.77698 0.771331C2.76029 0.813144 2.75228 0.857916 2.75344 0.902923V2.3373H1.96875C1.59579 2.3373 1.2381 2.48546 0.974381 2.74918C0.710658 3.0129 0.5625 3.37059 0.5625 3.74355V12.2823C0.5625 12.467 0.598874 12.6498 0.669544 12.8204C0.740215 12.9911 0.843799 13.1461 0.974381 13.2767C1.10496 13.4072 1.25999 13.5108 1.4306 13.5815C1.60122 13.6522 1.78408 13.6885 1.96875 13.6885H6.91031C7.19076 14.5657 7.69187 15.3561 8.3656 15.9839C9.03934 16.6117 9.86308 17.0559 10.7578 17.2738C11.6526 17.4917 12.5883 17.4761 13.4753 17.2284C14.3622 16.9808 15.1707 16.5093 15.8231 15.8594C16.4755 15.2094 16.9499 14.4027 17.2009 13.5167C17.4519 12.6307 17.471 11.695 17.2565 10.7994C17.0419 9.9039 16.6008 9.0785 15.9755 8.40242C15.3502 7.72635 14.5617 7.22227 13.6856 6.93855V6.94136ZM6.65438 12.0039H2.25V5.36073H11.9981V6.6798C10.5878 6.68787 9.23723 7.25056 8.23836 8.24627C7.2395 9.24197 6.67254 10.5907 6.66 12.001L6.65438 12.0039ZM12.0319 15.7501C11.3031 15.7501 10.5907 15.5341 9.98456 15.1295C9.37845 14.7248 8.90585 14.1496 8.62645 13.4765C8.34705 12.8034 8.27337 12.0627 8.41473 11.3477C8.5561 10.6328 8.90615 9.97577 9.42069 9.45966C9.93523 8.94355 10.5912 8.5915 11.3057 8.44796C12.0202 8.30442 12.7612 8.37584 13.4351 8.65319C14.1091 8.93054 14.6857 9.40138 15.0922 10.0063C15.4987 10.6111 15.7168 11.3229 15.7191 12.0517C15.7202 12.5367 15.6256 13.0172 15.4409 13.4657C15.2561 13.9142 14.9847 14.3219 14.6423 14.6654C14.2998 15.0089 13.893 15.2815 13.4451 15.4676C12.9971 15.6537 12.5169 15.7497 12.0319 15.7501Z" fill="currentColor"/>
<path d="M14.1272 12.0939H12.6562V10.3164C12.6562 10.1486 12.5896 9.98762 12.4709 9.86894C12.3522 9.75026 12.1913 9.68359 12.0234 9.68359C11.8556 9.68359 11.6946 9.75026 11.576 9.86894C11.4573 9.98762 11.3906 10.1486 11.3906 10.3164V12.7127C11.392 12.8838 11.4601 13.0477 11.5803 13.1695C11.7006 13.2913 11.8636 13.3615 12.0347 13.3652H14.1244C14.2922 13.3652 14.4532 13.2985 14.5718 13.1798C14.6905 13.0611 14.7572 12.9002 14.7572 12.7323C14.7572 12.5645 14.6905 12.4036 14.5718 12.2849C14.4532 12.1662 14.2922 12.0995 14.1244 12.0995L14.1272 12.0939Z" fill="currentColor"/>
</svg>
