<svg viewBox="0 0 18 18" fill="none" xmlns="http://www.w3.org/2000/svg">
<path fill-rule="evenodd" clip-rule="evenodd" d="M5.57719 1.6875H4.54781C4.46077 1.68823 4.37749 1.72314 4.31594 1.78469C4.25439 1.84624 4.21948 1.92952 4.21875 2.01656V3.65625H3.09375C2.72079 3.65625 2.3631 3.80441 2.09938 4.06813C1.83566 4.33185 1.6875 4.68954 1.6875 5.0625V14.9062C1.6875 15.2792 1.83566 15.6369 2.09938 15.9006C2.3631 16.1643 2.72079 16.3125 3.09375 16.3125H14.9062C15.2792 16.3125 15.6369 16.1643 15.9006 15.9006C16.1643 15.6369 16.3125 15.2792 16.3125 14.9062V5.0625C16.3125 4.68954 16.1643 4.33185 15.9006 4.06813C15.6369 3.80441 15.2792 3.65625 14.9062 3.65625H14.0625V2.02781C14.0625 1.93756 14.0266 1.851 13.9628 1.78718C13.899 1.72335 13.8124 1.6875 13.7222 1.6875H12.7153C12.6251 1.6875 12.5385 1.72335 12.4747 1.78718C12.4109 1.851 12.375 1.93756 12.375 2.02781V3.65625H5.90625V2.01656C5.90552 1.92952 5.87061 1.84624 5.80906 1.78469C5.74751 1.72314 5.66423 1.68823 5.57719 1.6875ZM3.375 7.03125H14.625V14.625H3.375V7.03125Z" fill="currentColor"/>
<rect x="5" y="9" width="3" height="3" fill="currentColor"/>
</svg>
