<svg width="18" height="18" viewBox="0 0 18 18" fill="none" xmlns="http://www.w3.org/2000/svg">
<path d="M6.38423 9.84369C6.38423 11.1768 6.14235 12.1959 5.6586 12.9009C5.43477 13.2409 5.12677 13.5173 4.76454 13.7031C4.40231 13.8889 3.99818 13.9778 3.59142 13.9612C3.18985 13.9787 2.79048 13.8933 2.43117 13.7131C2.07185 13.533 1.76451 13.2641 1.53829 12.9318C1.05454 12.2381 0.804229 11.2518 0.787354 9.97306V8.15619C0.787354 6.82869 1.02735 5.81338 1.50735 5.11025C1.73117 4.76972 2.03964 4.4932 2.40253 4.30781C2.76542 4.12242 3.17026 4.03453 3.57735 4.05275C3.98366 4.03421 4.38788 4.12076 4.75097 4.30403C5.11407 4.4873 5.42377 4.76111 5.65017 5.099C6.12829 5.7965 6.37298 6.79119 6.38423 8.08306V9.84369ZM4.49985 7.87494C4.52572 7.298 4.44955 6.72103 4.27485 6.17056C4.23379 6.01363 4.14319 5.87412 4.01652 5.77278C3.88984 5.67144 3.73385 5.61368 3.57173 5.60806C2.97735 5.60806 2.66892 6.30275 2.64642 7.69213V10.094C2.62214 10.6761 2.70118 11.2579 2.87985 11.8124C2.92215 11.9703 3.01423 12.1103 3.14242 12.2116C3.27062 12.3129 3.42808 12.3702 3.59142 12.3749C3.74672 12.3702 3.8964 12.3157 4.01841 12.2195C4.14043 12.1233 4.22835 11.9905 4.26923 11.8406C4.43991 11.322 4.51797 10.7774 4.49985 10.2318V7.87494Z" fill="#7A8694"/>
<path d="M7.84684 12.8641C7.84305 12.7255 7.86866 12.5876 7.92198 12.4597C7.97531 12.3317 8.05514 12.2164 8.15622 12.1216C8.26135 12.0251 8.38463 11.9506 8.51887 11.9023C8.65311 11.854 8.79562 11.8329 8.9381 11.8403C9.22533 11.8291 9.50569 11.9299 9.71997 12.1216C9.82229 12.2161 9.90293 12.3317 9.95633 12.4603C10.0097 12.589 10.0346 12.7277 10.0293 12.8669C10.0352 13.006 10.0103 13.1447 9.95632 13.273C9.90235 13.4014 9.82068 13.5163 9.71716 13.6094C9.50269 13.7988 9.2241 13.8994 8.9381 13.8906C8.6525 13.9021 8.37378 13.8012 8.16185 13.6094C8.05805 13.5157 7.97605 13.4004 7.92163 13.2717C7.8672 13.1429 7.84168 13.0038 7.84684 12.8641Z" fill="#7A8694"/>
<path d="M11.7756 9.07869L12.251 4.18213H16.9169V5.78525H13.781L13.6094 7.84963C13.938 7.61531 14.3308 7.48767 14.7344 7.484C15.0859 7.46567 15.4367 7.53286 15.7565 7.67982C16.0764 7.82677 16.3559 8.0491 16.571 8.32775C17.0022 8.89025 17.2169 9.689 17.215 10.724C17.2563 11.5698 16.9839 12.4011 16.45 13.0584C16.1968 13.3515 15.8806 13.5836 15.5251 13.7375C15.1696 13.8914 14.7839 13.9631 14.3969 13.9471C13.9046 13.95 13.4201 13.8249 12.9906 13.5843C12.5649 13.3506 12.2117 13.0042 11.9697 12.5831C11.7154 12.14 11.5844 11.637 11.59 11.1262H13.4406C13.4481 11.4597 13.5516 11.7839 13.7388 12.0599C13.8195 12.1716 13.9277 12.2605 14.0529 12.318C14.1782 12.3754 14.3161 12.3995 14.4534 12.3879C14.5907 12.3763 14.7226 12.3294 14.8364 12.2517C14.9502 12.1741 15.042 12.0683 15.1028 11.9446C15.2938 11.5273 15.3797 11.0696 15.3531 10.6115C15.3828 10.1716 15.2778 9.7331 15.0522 9.35432C14.959 9.2179 14.8327 9.10737 14.6851 9.03309C14.5376 8.95881 14.3735 8.92321 14.2085 8.92963C14.0525 8.92212 13.897 8.95129 13.7544 9.01478C13.6117 9.07828 13.486 9.17435 13.3872 9.29525L13.2691 9.46119L11.7756 9.07869Z" fill="#7A8694"/>
</svg>
