<svg width="18" height="18" viewBox="0 0 18 18" fill="none" xmlns="http://www.w3.org/2000/svg">
<path d="M2.25018 8.13635H2.31768C3.12768 8.13635 3.37518 7.2926 3.37518 6.36167C3.37518 6.0326 3.32174 5.34635 3.32174 4.91885C3.32174 3.84729 3.73236 2.52823 6.01611 2.52823C6.10708 2.52509 6.19772 2.54069 6.2824 2.57407C6.36708 2.60744 6.44399 2.65788 6.50835 2.72224C6.57271 2.7866 6.62315 2.86351 6.65652 2.94819C6.6899 3.03287 6.7055 3.12351 6.70236 3.21448C6.70098 3.39737 6.62866 3.57258 6.50066 3.70321C6.37265 3.83384 6.19894 3.90969 6.01611 3.91479C5.41143 3.9851 5.02611 4.27198 5.02611 5.23667C5.02611 5.9651 5.05424 6.32229 5.05424 6.56979C5.05424 7.97604 4.58455 8.5076 3.52705 8.97448C4.58174 9.44135 5.06268 9.9926 5.06268 11.382C5.06268 11.6407 5.03455 12.0007 5.03455 12.7292C5.03455 13.677 5.41986 13.9639 6.02455 14.0482C6.20588 14.0504 6.37916 14.1234 6.50738 14.2516C6.63561 14.3799 6.70861 14.5532 6.7108 14.7345C6.71392 14.8256 6.69832 14.9163 6.66498 15.0012C6.63163 15.086 6.58124 15.1631 6.51692 15.2276C6.45261 15.2922 6.37573 15.3429 6.29104 15.3766C6.20635 15.4103 6.11565 15.4263 6.02455 15.4235C3.7408 15.4235 3.33018 14.1017 3.33018 13.0301C3.33018 12.6195 3.38361 11.9304 3.38361 11.5873C3.38361 10.6507 3.13611 9.8126 2.32611 9.8126H2.25018C1.93236 9.8126 1.72705 9.57916 1.72705 8.96885C1.72705 8.35854 1.92955 8.13635 2.25018 8.13635Z" fill="#7A8694"/>
<path d="M15.7503 9.86317H15.6828C14.8728 9.86317 14.6366 10.7069 14.6366 11.6379C14.6366 11.981 14.6788 12.6672 14.6788 13.0807C14.6788 14.1522 14.2681 15.4713 11.9844 15.4713C11.8934 15.4744 11.8028 15.4588 11.7181 15.4255C11.6334 15.3921 11.5565 15.3416 11.4921 15.2773C11.4278 15.2129 11.3774 15.136 11.344 15.0513C11.3106 14.9667 11.295 14.876 11.2981 14.785C11.3003 14.6037 11.3733 14.4304 11.5016 14.3022C11.6298 14.174 11.8031 14.101 11.9844 14.0988C12.5891 14.0144 12.9744 13.7275 12.9744 12.7769C12.9744 12.0485 12.9463 11.6913 12.9463 11.4297C12.9463 10.0432 13.4159 9.49192 14.4734 9.02505C13.4188 8.55817 12.9378 8.02099 12.9378 6.61755C12.9378 6.37005 12.9659 6.01286 12.9659 5.28442C12.9659 4.32255 12.5806 4.03567 11.9759 3.96536C11.7931 3.96027 11.6194 3.88441 11.4914 3.75378C11.3634 3.62315 11.2911 3.44794 11.2897 3.26505C11.2866 3.17396 11.3022 3.08319 11.3355 2.99837C11.3689 2.91355 11.4193 2.83646 11.4836 2.77188C11.5479 2.7073 11.6248 2.6566 11.7095 2.6229C11.7941 2.58921 11.8848 2.57324 11.9759 2.57599C14.2597 2.57599 14.6703 3.89786 14.6703 4.96942C14.6703 5.39411 14.6281 6.09442 14.6281 6.41224C14.6281 7.3488 14.8644 8.18692 15.6744 8.18692H15.7503C16.0822 8.18692 16.2734 8.42036 16.2734 9.03067C16.2734 9.64099 16.085 9.86317 15.7503 9.86317Z" fill="#7A8694"/>
</svg>
