<svg viewBox="0 0 18 8" fill="none" xmlns="http://www.w3.org/2000/svg">
<path d="M5.59406 6.8996V4.74241C5.59435 4.63409 5.58588 4.52593 5.56875 4.41897C5.55688 4.32608 5.52729 4.23633 5.48156 4.1546C5.44055 4.0827 5.38263 4.02188 5.31281 3.97741C5.22721 3.92907 5.12978 3.90568 5.03156 3.90991C4.93328 3.90837 4.83631 3.93262 4.75031 3.98022C4.66705 4.02698 4.5958 4.09245 4.54219 4.17147C4.48507 4.25741 4.44321 4.35256 4.41844 4.45272C4.39255 4.55764 4.37933 4.66528 4.37906 4.77335V6.90804H3.07125V4.65804C3.08131 4.46858 3.03428 4.28047 2.93625 4.11804C2.88783 4.05134 2.82309 3.99821 2.74823 3.96373C2.67337 3.92926 2.59091 3.9146 2.50875 3.92116C2.4145 3.91837 2.32106 3.93931 2.23703 3.98207C2.15299 4.02483 2.08104 4.08802 2.02781 4.16585C1.91022 4.34412 1.85032 4.55425 1.85625 4.76772V6.91085H0.5625V2.97335H1.80844V3.52179H1.82531C1.87613 3.43298 1.93649 3.34999 2.00531 3.27429C2.07442 3.18438 2.15695 3.10565 2.25 3.04085C2.35561 2.97753 2.46908 2.92836 2.5875 2.8946C2.71976 2.85511 2.8573 2.83614 2.99531 2.83835C3.24848 2.83006 3.49918 2.89031 3.72094 3.01272C3.92227 3.12935 4.08395 3.30376 4.185 3.51335C4.31278 3.31085 4.48737 3.14204 4.69406 3.02116C4.9237 2.89203 5.18453 2.82877 5.44781 2.83835C5.68242 2.82976 5.91544 2.88004 6.12563 2.9846C6.29976 3.07596 6.45077 3.20581 6.56719 3.36429C6.67873 3.52329 6.7598 3.70163 6.80625 3.89022C6.85572 4.07366 6.88125 4.26273 6.88219 4.45272V6.89679L5.59406 6.8996Z" fill="currentColor"/>
<path d="M9.28115 1.68819C9.28197 1.7851 9.26182 1.88104 9.22209 1.96944C9.14316 2.1413 9.00118 2.27623 8.82553 2.34631C8.73597 2.382 8.64067 2.40106 8.54428 2.40256C8.44603 2.40508 8.34828 2.38769 8.25693 2.35144C8.16558 2.31519 8.0825 2.26083 8.01271 2.19162C7.94393 2.12727 7.88938 2.04923 7.85256 1.96253C7.81575 1.87582 7.79749 1.78237 7.79896 1.68819C7.79706 1.59174 7.81526 1.49596 7.8524 1.40694C7.88963 1.3208 7.9442 1.24325 8.01271 1.17912C8.08238 1.11487 8.16221 1.06259 8.24896 1.02444C8.34221 0.984394 8.4428 0.964276 8.54428 0.965375C8.64067 0.966876 8.73597 0.985938 8.82553 1.02162C8.91322 1.05517 8.99341 1.10575 9.06148 1.17043C9.12954 1.23511 9.18412 1.31262 9.22209 1.3985C9.26303 1.48948 9.28321 1.58844 9.28115 1.68819ZM7.8749 6.89975V2.96225H9.17428V6.89975H7.8749Z" fill="currentColor"/>
<path d="M12.5493 4.11553C12.4391 4.01155 12.3128 3.92607 12.1753 3.8624C12.0355 3.79292 11.8813 3.75727 11.7253 3.75834C11.6089 3.75628 11.4936 3.78031 11.3878 3.82865C11.3393 3.84855 11.2984 3.88313 11.2706 3.92752C11.2429 3.97192 11.2297 4.0239 11.2331 4.07615C11.2318 4.12849 11.2476 4.17981 11.2781 4.22241C11.3085 4.26501 11.3519 4.29659 11.4018 4.3124C11.585 4.38003 11.773 4.43362 11.9643 4.47272C12.1178 4.50509 12.2683 4.55024 12.4143 4.60772C12.5608 4.66431 12.6982 4.74201 12.8221 4.83834C12.9395 4.93335 13.0354 5.05223 13.1034 5.18709C13.1848 5.34105 13.2246 5.51364 13.2187 5.68772C13.2271 5.89466 13.1815 6.10023 13.0863 6.28417C12.9911 6.46812 12.8497 6.62411 12.6759 6.73678C12.5097 6.84393 12.326 6.92104 12.1331 6.96459C11.935 7.01246 11.7321 7.037 11.5284 7.03772C11.2061 7.03832 10.8859 6.98606 10.5806 6.88303C10.292 6.79075 10.0277 6.63508 9.80713 6.4274L10.5384 5.65678C10.6614 5.78645 10.8073 5.89229 10.9687 5.96897C11.1362 6.05301 11.3212 6.09637 11.5087 6.09553C11.6148 6.09143 11.7186 6.06356 11.8124 6.01397C11.8625 5.99141 11.9043 5.95384 11.932 5.90646C11.9597 5.85909 11.972 5.80426 11.9671 5.74959C11.9703 5.68826 11.9534 5.62757 11.9188 5.57678C11.8843 5.526 11.8341 5.48791 11.7759 5.46834C11.5841 5.38942 11.3854 5.32822 11.1824 5.28553C11.0417 5.25369 10.9035 5.21138 10.769 5.15897C10.6382 5.11088 10.5158 5.04255 10.4062 4.95647C10.2966 4.86369 10.2067 4.74989 10.1418 4.62178C10.0684 4.47439 10.0326 4.31107 10.0378 4.14647C10.0317 3.93386 10.0842 3.72369 10.1896 3.53897C10.2864 3.37532 10.4191 3.23585 10.5778 3.13115C10.7392 3.02529 10.9169 2.94645 11.1037 2.89771C11.2918 2.84781 11.4856 2.82229 11.6803 2.82178C11.9756 2.82227 12.2689 2.86974 12.5493 2.9624C12.8162 3.04635 13.0612 3.18852 13.2665 3.37865L12.5493 4.11553Z" fill="currentColor"/>
<path d="M16.6977 4.22533C16.6179 4.12622 16.5144 4.04883 16.3967 4.00033C16.2754 3.94286 16.1429 3.91308 16.0086 3.91314C15.8792 3.91048 15.7511 3.93843 15.6346 3.99471C15.5271 4.04948 15.4315 4.125 15.3533 4.21689C15.2713 4.31125 15.2074 4.41995 15.1649 4.53752C15.1197 4.66192 15.0969 4.79331 15.0974 4.92564C15.0967 5.05868 15.1185 5.19087 15.1621 5.31658C15.2025 5.4345 15.2656 5.54341 15.3477 5.63721C15.4255 5.72876 15.5212 5.80341 15.6289 5.85658C15.7493 5.90991 15.8798 5.93677 16.0114 5.93533C16.1463 5.93489 16.2798 5.90913 16.4052 5.85939C16.5265 5.81448 16.634 5.7389 16.7174 5.64002L17.4514 6.53158C17.2697 6.70161 17.0527 6.82935 16.8158 6.90564C16.5507 6.99662 16.2721 7.04226 15.9917 7.04064C15.6941 7.04316 15.3983 6.99465 15.1171 6.89721C14.8569 6.8076 14.6176 6.66598 14.4139 6.48096C14.2122 6.29589 14.0513 6.07079 13.9414 5.82002C13.7126 5.2574 13.7126 4.62763 13.9414 4.06502C14.0513 3.81425 14.2122 3.58914 14.4139 3.40408C14.6181 3.21828 14.8571 3.07488 15.1171 2.9822C15.3953 2.88433 15.6883 2.83486 15.9833 2.83596C16.1258 2.83637 16.2679 2.84955 16.408 2.87533C16.5453 2.90164 16.6806 2.93735 16.813 2.9822C16.9378 3.02528 17.0576 3.08187 17.1702 3.15095C17.2722 3.21166 17.3667 3.28437 17.4514 3.36752L16.6977 4.22533Z" fill="currentColor"/>
</svg>
