<svg viewBox="0 0 18 18" fill="none" xmlns="http://www.w3.org/2000/svg">
<path d="M14.6813 2.6748V6.09762H14.3438C14.2182 5.50205 13.9939 4.93168 13.6801 4.41012C13.4269 4.04874 13.0837 3.75982 12.6845 3.57199C12.2863 3.43407 11.8647 3.37671 11.4442 3.40324H10.502V13.1598C10.4759 13.5669 10.5119 13.9757 10.6088 14.372C10.7 14.5544 10.8467 14.7031 11.0279 14.7967C11.2886 14.9297 11.5793 14.9927 11.8717 14.9795H12.2907V15.3254H5.67854V14.9795H6.0976C6.40607 14.9939 6.7128 14.9259 6.98635 14.7826C7.15838 14.6821 7.29274 14.528 7.36885 14.3439C7.46223 13.9594 7.49637 13.563 7.4701 13.1682V3.40324H6.55604C5.70478 3.40324 5.08603 3.58324 4.69978 3.94324C4.12186 4.52324 3.75963 5.28341 3.67322 6.09762H3.31885V2.6748H14.6813Z" fill="currentColor"/>
</svg>
