<svg viewBox="0 0 20 20" fill="none" xmlns="http://www.w3.org/2000/svg">
<path d="M5 5.73169V5C5 3.96447 5.83947 3.125 6.875 3.125H13.125C14.1605 3.125 15 3.96447 15 5V5.73169M5 5.73169C5.19548 5.6626 5.40585 5.625 5.625 5.625H14.375C14.5942 5.625 14.8045 5.6626 15 5.73169M5 5.73169C4.27176 5.98909 3.75 6.68362 3.75 7.5V8.23169M15 5.73169C15.7282 5.98909 16.25 6.68362 16.25 7.5V8.23169M3.75 8.23169C3.94548 8.1626 4.15585 8.125 4.375 8.125H15.625C15.8442 8.125 16.0545 8.1626 16.25 8.23169M3.75 8.23169C3.02176 8.48908 2.5 9.18358 2.5 10V15C2.5 16.0355 3.33947 16.875 4.375 16.875H15.625C16.6605 16.875 17.5 16.0355 17.5 15V10C17.5 9.18358 16.9782 8.48908 16.25 8.23169" stroke="currentColor" stroke-width="1.5" stroke-linecap="round" stroke-linejoin="round"/>
</svg>
