<svg viewBox="0 0 18 18" fill="none" xmlns="http://www.w3.org/2000/svg">
<path d="M15.135 6.69922H8.2362C7.38951 6.69922 6.70312 7.3856 6.70312 8.23229V15.1311C6.70312 15.9778 7.38951 16.6642 8.2362 16.6642H15.135C15.9817 16.6642 16.6681 15.9778 16.6681 15.1311V8.23229C16.6681 7.3856 15.9817 6.69922 15.135 6.69922Z" stroke="currentColor" stroke-width="1.4" stroke-linecap="round" stroke-linejoin="round"/>
<path d="M3.63555 11.299H2.86901C2.46242 11.299 2.07247 11.1375 1.78496 10.8499C1.49746 10.5624 1.33594 10.1725 1.33594 9.7659V2.86706C1.33594 2.46046 1.49746 2.07052 1.78496 1.78301C2.07247 1.4955 2.46242 1.33398 2.86901 1.33398H9.76785C10.1744 1.33398 10.5644 1.4955 10.8519 1.78301C11.1394 2.07052 11.3009 2.46046 11.3009 2.86706V3.6336" stroke="currentColor" stroke-width="1.4" stroke-linecap="round" stroke-linejoin="round"/>
</svg>
