<svg viewBox="0 0 19 14" fill="none" xmlns="http://www.w3.org/2000/svg">
<path fill-rule="evenodd" clip-rule="evenodd" d="M0 2.23999C0 0.99735 1.01737 0 2.26001 0H15.76C17.0026 0 18.01 1.00736 18.01 2.25L18.02 11.75C18.02 12.9926 17.0127 14 15.77 14C11.9367 14 6.10335 14 2.27002 14C1.02738 14 0.01001 12.9826 0.01001 11.74L0 2.23999ZM8.26001 11.76V11.135C8.26001 10.7208 7.92422 10.385 7.51001 10.385H2.26001C1.8458 10.385 1.51001 10.7208 1.51001 11.135V11.75C1.51001 12.1642 1.8458 12.5 2.26001 12.5H7.63284C7.98862 12.4414 8.26001 12.1324 8.26001 11.76ZM9.76001 11.76C9.76001 12.1324 10.0314 12.4414 10.3872 12.5H15.76C16.1742 12.5 16.51 12.1642 16.51 11.75V11.135C16.51 10.7208 16.1742 10.385 15.76 10.385H10.51C10.0958 10.385 9.76001 10.7208 9.76001 11.135V11.76ZM16.51 8.13V7.505C16.51 7.0908 16.1742 6.755 15.76 6.755H10.51C10.0958 6.755 9.76001 7.0908 9.76001 7.505V8.13C9.76001 8.5442 10.0958 8.88 10.51 8.88H15.76C16.1742 8.88 16.51 8.5442 16.51 8.13ZM8.26001 8.13V7.505C8.26001 7.0908 7.92422 6.755 7.51001 6.755H2.26001C1.8458 6.755 1.51001 7.0908 1.51001 7.505V8.13C1.51001 8.5442 1.8458 8.88 2.26001 8.88H7.51001C7.92422 8.88 8.26001 8.5442 8.26001 8.13ZM16.51 4.5V3.875C16.51 3.46079 16.1742 3.125 15.76 3.125H10.51C10.0958 3.125 9.76001 3.46079 9.76001 3.875V4.5C9.76001 4.91421 10.0958 5.25 10.51 5.25H15.76C16.1742 5.25 16.51 4.91421 16.51 4.5ZM8.26001 4.5V3.875C8.26001 3.46079 7.92422 3.125 7.51001 3.125H2.26001C1.8458 3.125 1.51001 3.46079 1.51001 3.875V4.5C1.51001 4.91421 1.8458 5.25 2.26001 5.25H7.51001C7.92422 5.25 8.26001 4.91421 8.26001 4.5Z" fill="currentColor"/>
</svg>
