<svg xmlns="http://www.w3.org/2000/svg" viewBox="0 0 640 512">
<path fill="currentColor" d="M0 73.7C0 50.7 18.7 32 41.7 32c142.9 0 285.7 0 428.6 0c23 0 41.7 18.7 41.7 41.7c0 9.6-3.3 18.9-9.4 26.3c-31.2 38.4-62.5 76.7-93.7 115C355.8 245.3 320 302.5 320 368c0 26.2 5.7 51 16 73.4c0 2.1 0 4.2 0 6.3c0 17.8-14.5 32.3-32.3 32.3c-7.3 0-14.4-2.5-20.1-7.9c-30.8-24.2-61.7-48.3-92.5-72.5c-9.5-7.6-15.1-19.1-15.1-31.3c0-21.3 0-42.5 0-63.8C120.4 236.3 64.9 168.2 9.4 100C3.3 92.6 0 83.3 0 73.7zM55 80L218.6 280.8c3.5 4.3 5.4 9.7 5.4 15.2c0 22.8 0 45.6 0 68.4c21.3 16.9 42.7 33.9 64 50.8c0-39.7 0-79.5 0-119.2c0-5.5 1.9-10.9 5.4-15.2C347.9 213.9 402.5 146.9 457 80c-134 0-268 0-402 0zM640 368c0 79.5-64.5 144-144 144s-144-64.5-144-144s64.5-144 144-144s144 64.5 144 144zM480 304l0 48c-16 0-32 0-48 0c-8.8 0-16 7.2-16 16s7.2 16 16 16c16 0 32 0 48 0l0 48c0 8.8 7.2 16 16 16s16-7.2 16-16c0-16 0-32 0-48c16 0 32 0 48 0c8.8 0 16-7.2 16-16s-7.2-16-16-16c-16 0-32 0-48 0c0-16 0-32 0-48c0-8.8-7.2-16-16-16s-16 7.2-16 16z"></path>
</svg>