<svg viewBox="0 0 17 18" fill="none" xmlns="http://www.w3.org/2000/svg">
<path d="M0.685547 0.429688H16.3389L16.3643 5.67285H15.6152C15.3698 3.80241 14.6673 2.53711 13.5078 1.87695C12.8561 1.51302 11.8828 1.31413 10.5879 1.28027V14.9658C10.5879 15.9222 10.7529 16.557 11.083 16.8701C11.4215 17.1833 12.1198 17.3398 13.1777 17.3398V18H3.91016V17.3398C4.92578 17.3398 5.59863 17.1833 5.92871 16.8701C6.26725 16.5485 6.43652 15.9137 6.43652 14.9658V1.28027C5.16699 1.31413 4.19368 1.51302 3.5166 1.87695C2.27246 2.55404 1.56999 3.81934 1.40918 5.67285H0.660156L0.685547 0.429688Z" fill="currentColor"/>
</svg>
