<svg width="11" height="13" viewBox="0 0 11 13" fill="none" xmlns="http://www.w3.org/2000/svg">
<path d="M0.296 0.256H5.048C5.6 0.256 6.152 0.298 6.704 0.381999C7.268 0.453999 7.772 0.609999 8.216 0.85C8.66 1.078 9.02 1.402 9.296 1.822C9.572 2.242 9.71 2.8 9.71 3.496C9.71 4.216 9.506 4.816 9.098 5.296C8.702 5.764 8.174 6.1 7.514 6.304V6.34C7.934 6.4 8.312 6.52 8.648 6.7C8.996 6.868 9.29 7.09 9.53 7.366C9.782 7.63 9.974 7.942 10.106 8.302C10.238 8.662 10.304 9.046 10.304 9.454C10.304 10.126 10.16 10.69 9.872 11.146C9.584 11.59 9.212 11.95 8.756 12.226C8.3 12.502 7.784 12.7 7.208 12.82C6.644 12.94 6.08 13 5.516 13H0.296V0.256ZM3.104 5.35H5.138C5.354 5.35 5.564 5.326 5.768 5.278C5.984 5.23 6.176 5.152 6.344 5.044C6.512 4.936 6.644 4.792 6.74 4.612C6.848 4.432 6.902 4.216 6.902 3.964C6.902 3.7 6.842 3.484 6.722 3.316C6.614 3.136 6.47 2.998 6.29 2.902C6.11 2.806 5.906 2.74 5.678 2.704C5.45 2.656 5.228 2.632 5.012 2.632H3.104V5.35ZM3.104 10.624H5.624C5.84 10.624 6.056 10.6 6.272 10.552C6.5 10.504 6.704 10.42 6.884 10.3C7.064 10.18 7.208 10.024 7.316 9.832C7.436 9.64 7.496 9.406 7.496 9.13C7.496 8.83 7.418 8.59 7.262 8.41C7.118 8.218 6.932 8.074 6.704 7.978C6.476 7.882 6.23 7.816 5.966 7.78C5.702 7.744 5.456 7.726 5.228 7.726H3.104V10.624Z" fill="currentColor"/>
</svg>
