<svg width="10" height="10" viewBox="0 0 10 10" fill="none" xmlns="http://www.w3.org/2000/svg">
<path d="M9.64064 8.09361L6.54707 5.00005L9.64064 1.90648C9.72603 1.82106 9.72603 1.68259 9.64064 1.59717L8.40317 0.359701C8.31775 0.274305 8.17928 0.274305 8.09385 0.359701L5.00029 3.45326L1.90673 0.359701C1.82131 0.274305 1.68284 0.274305 1.59741 0.359701L0.359945 1.59717C0.274549 1.68259 0.274549 1.82106 0.359945 1.90648L3.45351 5.00005L0.359945 8.09361C0.274549 8.17903 0.274549 8.3175 0.359945 8.40292L1.59741 9.64039C1.68284 9.72579 1.82131 9.72579 1.90673 9.64039L5.00029 6.54683L8.09385 9.64039C8.17928 9.72579 8.31775 9.72579 8.40317 9.64039L9.64064 8.40292C9.72603 8.3175 9.72603 8.17903 9.64064 8.09361Z" fill="currentColor"/>
</svg>
