<svg viewBox="0 0 16 22" fill="none" xmlns="http://www.w3.org/2000/svg">
<path d="M1.88672 11.25C2.19661 11.25 2.43587 11.3389 2.60449 11.5166C2.77311 11.6898 2.85742 11.9085 2.85742 12.1729C2.85742 12.4326 2.77311 12.6491 2.60449 12.8223C2.43587 12.9909 2.19661 13.0752 1.88672 13.0752C1.59049 13.0752 1.35579 12.9909 1.18262 12.8223C1.00944 12.6536 0.922852 12.4372 0.922852 12.1729C0.922852 11.9085 1.00716 11.6898 1.17578 11.5166C1.3444 11.3389 1.58138 11.25 1.88672 11.25ZM11.1426 8.80957C11.1426 10.2406 10.8737 11.3206 10.3359 12.0498C9.80273 12.7744 8.98926 13.1367 7.89551 13.1367C6.81999 13.1367 6.00879 12.7835 5.46191 12.0771C4.9196 11.3662 4.6416 10.3158 4.62793 8.92578V7.20312C4.62793 5.77214 4.89453 4.69889 5.42773 3.9834C5.96549 3.2679 6.78353 2.91016 7.88184 2.91016C8.97103 2.91016 9.78223 3.25879 10.3154 3.95605C10.8532 4.65332 11.1289 5.69694 11.1426 7.08691V8.80957ZM9.48145 6.9502C9.48145 6.01595 9.35384 5.33236 9.09863 4.89941C8.84342 4.46191 8.43783 4.24316 7.88184 4.24316C7.33952 4.24316 6.94076 4.45052 6.68555 4.86523C6.43034 5.27539 6.2959 5.91797 6.28223 6.79297V9.04883C6.28223 9.97852 6.41211 10.6712 6.67188 11.127C6.93164 11.5827 7.33952 11.8105 7.89551 11.8105C8.42871 11.8105 8.82292 11.6009 9.07812 11.1816C9.33333 10.7578 9.46777 10.097 9.48145 9.19922V6.9502Z" fill="currentColor"/>
<line x1="16" y1="18" x2="11" y2="18" stroke="currentColor" stroke-width="2"/>
<path d="M6 18L11.25 14.5359L11.25 21.4641L6 18Z" fill="currentColor"/>
</svg>
