<svg width="9" height="16" viewBox="0 0 9 16" fill="none" xmlns="http://www.w3.org/2000/svg">
<path d="M6.17188 11.0078C6.17188 10.5807 6.05208 10.2422 5.8125 9.99219C5.57812 9.73698 5.17708 9.5026 4.60938 9.28906C4.04167 9.07552 3.55208 8.86458 3.14062 8.65625C2.72917 8.44271 2.375 8.20052 2.07812 7.92969C1.78646 7.65365 1.55729 7.33073 1.39062 6.96094C1.22917 6.59115 1.14844 6.15104 1.14844 5.64062C1.14844 4.76042 1.42969 4.03906 1.99219 3.47656C2.55469 2.91406 3.30208 2.58594 4.23438 2.49219V0.820312H5.48438V2.51562C6.40625 2.64583 7.1276 3.03125 7.64844 3.67188C8.16927 4.30729 8.42969 5.13281 8.42969 6.14844H6.17188C6.17188 5.52344 6.04167 5.05729 5.78125 4.75C5.52604 4.4375 5.18229 4.28125 4.75 4.28125C4.32292 4.28125 3.99219 4.40365 3.75781 4.64844C3.52344 4.88802 3.40625 5.22135 3.40625 5.64844C3.40625 6.04427 3.52083 6.36198 3.75 6.60156C3.97917 6.84115 4.40365 7.08594 5.02344 7.33594C5.64844 7.58594 6.16146 7.82292 6.5625 8.04688C6.96354 8.26562 7.30208 8.51562 7.57812 8.79688C7.85417 9.07292 8.0651 9.39062 8.21094 9.75C8.35677 10.1042 8.42969 10.5182 8.42969 10.9922C8.42969 11.8776 8.15365 12.5964 7.60156 13.1484C7.04948 13.7005 6.28906 14.026 5.32031 14.125V15.6797H4.07812V14.1328C3.01042 14.0182 2.18229 13.6406 1.59375 13C1.01042 12.3542 0.71875 11.4974 0.71875 10.4297H2.97656C2.97656 11.0495 3.1224 11.526 3.41406 11.8594C3.71094 12.1875 4.13542 12.3516 4.6875 12.3516C5.14583 12.3516 5.50781 12.2318 5.77344 11.9922C6.03906 11.7474 6.17188 11.4193 6.17188 11.0078Z" fill="currentColor"/>
</svg>
