<svg width="14" height="15" viewBox="0 0 14 15" fill="none" xmlns="http://www.w3.org/2000/svg">
<g clip-path="url(#clip0)">
<path d="M11.5239 8.10568L6.39078 2.85643L3.81692 0.224327C3.52444 -0.0747757 3.07109 -0.0747757 2.7786 0.224327C2.48612 0.52343 2.48612 0.987039 2.7786 1.28614L4.84062 3.39482L0.219363 8.10568C0.0731211 8.24028 0 8.4347 0 8.62911C0 8.82353 0.0731211 9.01795 0.219363 9.15254L5.35246 14.4018C5.49871 14.5513 5.68882 14.6261 5.86431 14.6261C6.05443 14.6261 6.24454 14.5513 6.37616 14.4018L11.5093 9.15254C11.6409 9.01795 11.7286 8.82353 11.7286 8.62911C11.7286 8.4347 11.6555 8.24028 11.5239 8.10568ZM1.55017 8.62911L5.76194 4.33699L9.9591 8.62911H1.55017Z" fill="currentColor"/>
<path d="M14 13.7138C14 14.4317 13.4296 15 12.7423 15C12.0403 15 11.4846 14.4167 11.4846 13.7138C11.4846 12.996 12.7423 11.0967 12.7423 11.0967C12.7423 11.0967 14 13.0109 14 13.7138Z" fill="currentColor"/>
</g>
<defs>
<clipPath id="clip0">
<rect width="14" height="15" fill="white"/>
</clipPath>
</defs>
</svg>
