<svg width="13" height="10" viewBox="0 0 13 10" fill="none" xmlns="http://www.w3.org/2000/svg">
<path d="M8.23333 0C7.62667 0 7.04167 0.113636 6.5 0.340909C5.95833 0.113636 5.37333 0 4.76667 0C2.12333 0 0 2.22727 0 5C0 7.77273 2.12333 10 4.76667 10C5.37333 10 5.95833 9.88636 6.5 9.65909C7.04167 9.88636 7.62667 10 8.23333 10C10.8767 10 13 7.77273 13 5C13 2.22727 10.855 0 8.23333 0ZM4.76667 8.63636C2.86 8.63636 1.3 7 1.3 5C1.3 3 2.86 1.36364 4.76667 1.36364C4.83167 1.36364 4.89667 1.36364 4.96167 1.36364C4.05167 2.27273 3.46667 3.56818 3.46667 5C3.46667 6.43182 4.03 7.70455 4.96167 8.63636C4.89667 8.63636 4.83167 8.63636 4.76667 8.63636ZM8.23333 5C8.23333 6.34091 7.54 7.52273 6.5 8.13636C5.46 7.5 4.76667 6.34091 4.76667 5C4.76667 3.65909 5.46 2.47727 6.5 1.86364C7.54 2.47727 8.23333 3.65909 8.23333 5ZM8.23333 8.63636C8.16833 8.63636 8.10333 8.63636 8.03833 8.63636C8.94833 7.72727 9.53333 6.43182 9.53333 5C9.53333 3.56818 8.97 2.29545 8.03833 1.36364C8.10333 1.36364 8.16833 1.36364 8.23333 1.36364C10.14 1.36364 11.7 3 11.7 5C11.7 7 10.14 8.63636 8.23333 8.63636Z" fill="currentColor"/>
</svg>
