<svg width="12" height="13" viewBox="0 0 12 13" fill="none" xmlns="http://www.w3.org/2000/svg">
<path d="M0.742188 2.8125C0.742188 2.11458 0.96875 1.54948 1.42188 1.11719C1.875 0.679688 2.46875 0.460938 3.20312 0.460938C3.94792 0.460938 4.54688 0.677083 5 1.10938C5.45312 1.53646 5.67969 2.11719 5.67969 2.85156V3.41406C5.67969 4.11719 5.45312 4.68229 5 5.10938C4.54688 5.53646 3.95312 5.75 3.21875 5.75C2.47917 5.75 1.88021 5.53646 1.42188 5.10938C0.96875 4.67708 0.742188 4.09635 0.742188 3.36719V2.8125ZM2.24219 3.41406C2.24219 3.72656 2.33073 3.97917 2.50781 4.17188C2.6901 4.35938 2.92708 4.45312 3.21875 4.45312C3.51042 4.45312 3.74219 4.35677 3.91406 4.16406C4.08594 3.97135 4.17188 3.71354 4.17188 3.39062V2.8125C4.17188 2.5 4.08594 2.2474 3.91406 2.05469C3.74219 1.86198 3.50521 1.76562 3.20312 1.76562C2.91667 1.76562 2.6849 1.86198 2.50781 2.05469C2.33073 2.24219 2.24219 2.50521 2.24219 2.84375V3.41406ZM6.17969 9.21094C6.17969 8.50781 6.40885 7.94271 6.86719 7.51562C7.32552 7.08333 7.91927 6.86719 8.64844 6.86719C9.38802 6.86719 9.98438 7.08073 10.4375 7.50781C10.8958 7.92969 11.125 8.51302 11.125 9.25781V9.82031C11.125 10.5182 10.901 11.0833 10.4531 11.5156C10.0052 11.9427 9.40885 12.1562 8.66406 12.1562C7.91406 12.1562 7.3125 11.9401 6.85938 11.5078C6.40625 11.0755 6.17969 10.5026 6.17969 9.78906V9.21094ZM7.67969 9.82031C7.67969 10.1068 7.77344 10.3516 7.96094 10.5547C8.14844 10.7578 8.38281 10.8594 8.66406 10.8594C9.29948 10.8594 9.61719 10.5078 9.61719 9.80469V9.21094C9.61719 8.89844 9.52865 8.64844 9.35156 8.46094C9.17448 8.26823 8.9401 8.17188 8.64844 8.17188C8.35677 8.17188 8.1224 8.26823 7.94531 8.46094C7.76823 8.64844 7.67969 8.90625 7.67969 9.23438V9.82031ZM3.66406 11.1484L2.5625 10.5547L8.11719 1.66406L9.21875 2.25781L3.66406 11.1484Z" fill="currentColor"/>
</svg>
