<svg width="20" height="20" viewBox="0 0 20 20" fill="none" xmlns="http://www.w3.org/2000/svg">
<path d="M10.0625 1.78442C9.1812 2.8094 8.35804 3.88296 7.59687 5.00005L15.3813 12.8751C15.4629 12.4835 15.5038 12.0844 15.5031 11.6844C15.5031 8.00943 10.0625 1.78442 10.0625 1.78442ZM3.9625 3.67505L2.8125 4.84692L5.80938 7.88443C5.1125 9.2188 4.61875 10.5532 4.61875 11.6626C4.6134 12.3828 4.74996 13.097 5.02064 13.7644C5.29132 14.4319 5.69081 15.0395 6.19632 15.5525C6.70182 16.0656 7.30343 16.474 7.96679 16.7546C8.63015 17.0351 9.34228 17.1822 10.0625 17.1876C11.3893 17.1896 12.6697 16.6997 13.6562 15.8126L16.0375 18.2157L17.1875 17.0438L14.6875 14.5438L10.5125 10.3126L3.95 3.67817L3.9625 3.67505Z" fill="currentColor"/>
</svg>
