<svg width="20" height="20" viewBox="0 0 20 20" fill="none" xmlns="http://www.w3.org/2000/svg">
<path d="M4.46178 15.3846C4.26947 15.3846 4.07717 15.3077 3.92332 15.1539C3.61563 14.8462 3.61563 14.3462 3.92332 14.0769L6.26947 11.7308L3.92332 9.38463C3.61563 9.07693 3.61563 8.6154 3.92332 8.3077C4.23101 8.00001 4.69255 8.00001 5.00024 8.3077L7.92332 11.1923C8.07717 11.3462 8.15409 11.5385 8.15409 11.7308C8.15409 11.9231 8.07717 12.1154 7.92332 12.2692L5.00024 15.1539C4.8464 15.3077 4.65409 15.3846 4.46178 15.3846Z" fill="currentColor"/>
<path d="M15.5385 12.5H11.1539C10.7308 12.5 10.3846 12.1539 10.3846 11.7308C10.3846 11.3077 10.7308 10.9615 11.1539 10.9615H15.5769C16 10.9615 16.3462 11.3077 16.3462 11.7308C16.3462 12.1539 15.9615 12.5 15.5385 12.5Z" fill="currentColor"/>
<path d="M0 0V20H20V0H0ZM1.53846 18.4615V5H18.4615V18.4615H1.53846Z" fill="currentColor"/>
</svg>
