<svg width="15" height="15" viewBox="0 0 15 15" fill="none" xmlns="http://www.w3.org/2000/svg">
<path d="M4.45714 6.5625H10.2C10.1143 6.47727 10.0286 6.39205 9.94286 6.30682C9.42857 6.13636 8.91429 5.88068 8.4 5.71023C7.88572 5.53977 7.37143 5.36932 6.94286 5.28409C6.51429 5.19886 6.08571 4.94318 5.82857 4.6875C5.57143 4.43182 5.4 4.09091 5.4 3.66477C5.4 3.40909 5.48571 3.15341 5.57143 2.89773C5.65714 2.72727 5.82857 2.55682 6.08571 2.38636C6.25714 2.21591 6.51429 2.13068 6.77143 2.13068C7.02857 2.04545 7.28571 2.04545 7.54286 2.04545C7.97143 2.04545 8.4 2.13068 8.82857 2.30114C9.25714 2.47159 9.51429 2.72727 9.77143 3.06818L11.4 1.36364C10.8857 0.9375 10.3714 0.596591 9.68572 0.340909C9 0.0852273 8.4 0 7.71429 0C7.11429 0 6.51429 0.0852273 6 0.255682C5.4 0.426136 4.88571 0.596591 4.45714 0.9375C4.02857 1.27841 3.68571 1.61932 3.42857 2.13068C3.17143 2.64205 3 3.15341 3 3.83523C3 4.60227 3.17143 5.19886 3.42857 5.625C3.77143 6.05114 4.02857 6.30682 4.45714 6.5625Z" fill="currentColor"/>
<path d="M15 8.09659H0V9.80113H7.97143C8.22857 9.88636 8.4 10.0568 8.57143 10.2273C8.82857 10.483 9 10.8239 9 11.3352C9 11.5909 8.91429 11.8466 8.82857 12.1023C8.65714 12.358 8.48571 12.5284 8.31429 12.6136C8.05714 12.7841 7.88571 12.8693 7.62857 12.9545C7.37143 13.0398 7.11429 12.9545 6.85714 12.9545C6.34286 12.9545 5.91429 12.8693 5.4 12.6136C4.97143 12.358 4.62857 12.017 4.28571 11.6761L2.57143 13.2955C3.08571 13.892 3.77143 14.3182 4.45714 14.6591C5.14286 15 5.91429 15.0852 6.77143 15.0852C7.37143 15.0852 7.97143 15 8.57143 14.8295C9.17143 14.6591 9.6 14.4034 10.0286 14.0625C10.4571 13.7216 10.8 13.2955 11.0571 12.7841C11.3143 12.2727 11.4 11.6761 11.4 10.9943C11.4 10.5682 11.3143 10.142 11.2286 9.80113H15V8.09659Z" fill="currentColor"/>
</svg>
